<svg width="64" height="64" viewBox="0 0 64 64" fill="none" xmlns="http://www.w3.org/2000/svg">
<rect width="64" height="64" rx="16" fill="#564FFD"/>
<path opacity="0.2" d="M31 23.0004L23.5404 25.7977C23.3761 25.8593 23.2309 25.9631 23.1194 26.0986C23.0079 26.2341 22.934 26.3965 22.9051 26.5696L20 44.0004L37.4307 41.0952C37.6038 41.0664 37.7663 40.9925 37.9018 40.881C38.0373 40.7695 38.141 40.6243 38.2026 40.46L41 33.0004L31 23.0004ZM30.4993 35.9999C30.0048 35.9999 29.5215 35.8533 29.1103 35.5786C28.6992 35.3039 28.3788 34.9135 28.1896 34.4566C28.0004 33.9998 27.9508 33.4972 28.0473 33.0122C28.1438 32.5273 28.3819 32.0818 28.7315 31.7322C29.0811 31.3825 29.5266 31.1444 30.0115 31.048C30.4965 30.9515 30.9992 31.001 31.456 31.1902C31.9128 31.3795 32.3032 31.6999 32.5779 32.111C32.8526 32.5221 32.9993 33.0055 32.9993 33.4999C32.9993 33.8282 32.9346 34.1533 32.809 34.4566C32.6833 34.76 32.4992 35.0356 32.267 35.2677C32.0349 35.4999 31.7593 35.684 31.456 35.8096C31.1527 35.9353 30.8276 35.9999 30.4993 35.9999Z" fill="white"/>
<path d="M30.5 36C31.8807 36 33 34.8807 33 33.5C33 32.1193 31.8807 31 30.5 31C29.1193 31 28 32.1193 28 33.5C28 34.8807 29.1193 36 30.5 36Z" stroke="white" stroke-width="2" stroke-linecap="round" stroke-linejoin="round"/>
<path d="M20 44.0004L28.7315 35.2677" stroke="white" stroke-width="2" stroke-linecap="round" stroke-linejoin="round"/>
<path d="M20 44.0005L37.4307 41.0954C37.6038 41.0665 37.7663 40.9926 37.9018 40.8811C38.0373 40.7696 38.141 40.6244 38.2026 40.4601L41 33.0005L31 23.0005L23.5404 25.7978C23.3761 25.8595 23.2309 25.9632 23.1194 26.0987C23.0079 26.2342 22.934 26.3967 22.9051 26.5698L20 44.0005Z" stroke="white" stroke-width="2" stroke-linecap="round" stroke-linejoin="round"/>
<path d="M41 33.0005L44.2929 29.7076C44.3858 29.6147 44.4594 29.5045 44.5097 29.3831C44.5599 29.2618 44.5858 29.1318 44.5858 29.0005C44.5858 28.8691 44.5599 28.7391 44.5097 28.6178C44.4594 28.4964 44.3858 28.3862 44.2929 28.2934L35.7071 19.7076C35.5196 19.52 35.2652 19.4147 35 19.4147C34.7348 19.4147 34.4804 19.52 34.2929 19.7076L31 23.0005" stroke="white" stroke-width="2" stroke-linecap="round" stroke-linejoin="round"/>
</svg>
