<svg width="64" height="64" viewBox="0 0 64 64" fill="none" xmlns="http://www.w3.org/2000/svg">
<rect width="64" height="64" rx="16" fill="#FF994F"/>
<path opacity="0.2" d="M21.28 21.3734C21.131 21.3299 20.9739 21.3217 20.8211 21.3495C20.6684 21.3773 20.5242 21.4402 20.4 21.5334C20.2758 21.6265 20.175 21.7473 20.1056 21.8862C20.0361 22.025 20 22.1781 20 22.3334V39.6667C20 39.822 20.0361 39.9751 20.1056 40.1139C20.175 40.2528 20.2758 40.3736 20.4 40.4667C20.5242 40.5599 20.6684 40.6228 20.8211 40.6506C20.9739 40.6783 21.131 40.6702 21.28 40.6267L33.0007 37.2082V24.7919L21.28 21.3734Z" fill="white"/>
<path d="M20 22.3334V39.6667C20 39.822 20.0361 39.9751 20.1056 40.1139C20.175 40.2528 20.2758 40.3736 20.4 40.4667C20.5242 40.5599 20.6684 40.6228 20.8211 40.6506C20.9739 40.6783 21.131 40.6702 21.28 40.6267L43.28 34.21C43.4877 34.1495 43.6702 34.0231 43.8 33.85C43.9298 33.6769 44 33.4664 44 33.25V28.75C44 28.5337 43.9298 28.3231 43.8 28.15C43.6702 27.9769 43.4877 27.8506 43.28 27.79L21.28 21.3734C21.131 21.3299 20.9739 21.3217 20.8211 21.3495C20.6684 21.3773 20.5242 21.4402 20.4 21.5334C20.2758 21.6265 20.175 21.7473 20.1056 21.8862C20.0361 22.025 20 22.1781 20 22.3334V22.3334Z" stroke="white" stroke-width="2" stroke-linecap="round" stroke-linejoin="round"/>
<path d="M39 35.4581V40C39 40.2652 38.8946 40.5196 38.7071 40.7071C38.5196 40.8946 38.2652 41 38 41H34C33.7348 41 33.4804 40.8946 33.2929 40.7071C33.1054 40.5196 33 40.2652 33 40V24.7919" stroke="white" stroke-width="2" stroke-linecap="round" stroke-linejoin="round"/>
</svg>
