<svg width="64" height="64" viewBox="0 0 64 64" fill="none" xmlns="http://www.w3.org/2000/svg">
<rect width="64" height="64" rx="16" fill="#54DFF2"/>
<path opacity="0.2" d="M21.9922 32H41.9922V34.5C41.9922 37.1522 40.9386 39.6957 39.0633 41.5711C37.1879 43.4464 34.6444 44.5 31.9922 44.5C29.34 44.5 26.7965 43.4464 24.9211 41.5711C23.0458 39.6957 21.9922 37.1522 21.9922 34.5V32Z" fill="white"/>
<path d="M41.9922 34.5C41.9922 37.1522 40.9386 39.6957 39.0633 41.5711C37.1879 43.4464 34.6444 44.5 31.9922 44.5C29.34 44.5 26.7965 43.4464 24.9211 41.5711C23.0458 39.6957 21.9922 37.1522 21.9922 34.5V29.5C21.9922 26.8478 23.0458 24.3043 24.9211 22.4289C26.7965 20.5536 29.34 19.5 31.9922 19.5C34.6444 19.5 37.1879 20.5536 39.0633 22.4289C40.9386 24.3043 41.9922 26.8478 41.9922 29.5V34.5Z" stroke="white" stroke-width="2" stroke-linecap="round" stroke-linejoin="round"/>
<path d="M41.9922 32H21.9922" stroke="white" stroke-width="2" stroke-linecap="round" stroke-linejoin="round"/>
<path d="M35.9922 27.5C35.9922 27.7761 35.7683 28 35.4922 28C35.216 28 34.9922 27.7761 34.9922 27.5C34.9922 27.2239 35.216 27 35.4922 27C35.7683 27 35.9922 27.2239 35.9922 27.5Z" fill="white" stroke="white" stroke-width="2"/>
<path d="M28.9922 27.5C28.9922 27.7761 28.7683 28 28.4922 28C28.216 28 27.9922 27.7761 27.9922 27.5C27.9922 27.2239 28.216 27 28.4922 27C28.7683 27 28.9922 27.2239 28.9922 27.5Z" fill="white" stroke="white" stroke-width="2"/>
<path d="M22.9922 19.5L25.5315 21.867" stroke="white" stroke-width="2" stroke-linecap="round" stroke-linejoin="round"/>
<path d="M40.9905 19.5L38.4512 21.8671" stroke="white" stroke-width="2" stroke-linecap="round" stroke-linejoin="round"/>
</svg>
