<svg width="24" height="24" viewBox="0 0 24 24" fill="none" xmlns="http://www.w3.org/2000/svg">
<rect x="0.157104" y="4.1571" width="23.6858" height="15.6858" rx="1.09973" fill="#006FCF" stroke="#909090" stroke-width="0.314208"/>
<path fill-rule="evenodd" clip-rule="evenodd" d="M4.90869 15.9698V12.5583H8.76676L9.18069 13.0635L9.6083 12.5583H23.6121V15.7345C23.6121 15.7345 23.2459 15.9664 22.8224 15.9698H15.0681L14.6015 15.432V15.9698H13.0722V15.0518C13.0722 15.0518 12.8632 15.1799 12.4116 15.1799H11.8911V15.9698H9.57558L9.16224 15.4537L8.74256 15.9698H4.90869ZM0.413574 9.98687L1.28161 8.08789H2.78279L3.27541 9.15162V8.08789H5.14151L5.43477 8.85673L5.71907 8.08789H14.0959V8.47441C14.0959 8.47441 14.5363 8.08789 15.26 8.08789L17.978 8.0968L18.4621 9.14662V8.08789H20.0238L20.4536 8.69092V8.08789H22.0296V11.4993H20.4536L20.0417 10.8944V11.4993H17.7473L17.5165 10.9616H16.8997L16.6727 11.4993H15.1167C14.494 11.4993 14.0959 11.1207 14.0959 11.1207V11.4993H11.7499L11.2842 10.9616V11.4993H2.5604L2.32982 10.9616H1.71497L1.48603 11.4993H0.413574V9.98687ZM0.41806 11.0623L1.58885 8.50797H2.47646L3.64613 11.0623H2.8671L2.65219 10.5508H1.39633L1.18031 11.0623H0.41806ZM2.40479 9.9961L2.02199 9.10227L1.63807 9.9961H2.40479ZM3.72677 11.0625V8.50809L4.80997 8.51187L5.43999 10.1588L6.05492 8.50809H7.12945V11.0625H6.44892V9.1803L5.72753 11.0625H5.1307L4.40731 9.1803V11.0625H3.72677ZM7.59508 11.0625V8.50809H9.81577V9.07947H8.28278V9.5164H9.77996V10.0542H8.28278V10.5079H9.81577V11.0625H7.59508ZM10.2096 11.0623V8.50797H11.724C12.2258 8.50797 12.6754 8.79914 12.6754 9.33667C12.6754 9.79618 12.2963 10.0922 11.9288 10.1213L12.8243 11.0623H11.9926L11.1767 10.1549H10.8901V11.0623H10.2096ZM11.668 9.07939H10.8901V9.61716H11.6781C11.8145 9.61716 11.9904 9.51798 11.9904 9.34828C11.9904 9.21637 11.8546 9.07939 11.668 9.07939ZM13.6482 11.0625H12.9533V8.50809H13.6482V11.0625ZM15.2959 11.0625H15.1459C14.4202 11.0625 13.9796 10.526 13.9796 9.79579C13.9796 9.04756 14.4152 8.50809 15.3317 8.50809H16.0839V9.11308H15.3042C14.9322 9.11308 14.6691 9.38551 14.6691 9.80209C14.6691 10.2968 14.9699 10.5045 15.4033 10.5045H15.5824L15.2959 11.0625ZM15.6059 11.0623L16.7767 8.50797H17.6643L18.8339 11.0623H18.0549L17.84 10.5508H16.5841L16.3681 11.0623H15.6059ZM17.5926 9.9961L17.2098 9.10227L16.8259 9.9961H17.5926ZM18.9134 11.0625V8.50809H19.7787L20.8834 10.113V8.50809H21.5639V11.0625H20.7267L19.594 9.41557V11.0625H18.9134ZM5.37437 15.5323V12.978H7.59507V13.5493H6.06207V13.9863H7.55925V14.524H6.06207V14.9778H7.59507V15.5323H5.37437ZM16.2558 15.5323V12.978H18.4765V13.5493H16.9435V13.9863H18.4335V14.524H16.9435V14.9778H18.4765V15.5323H16.2558ZM7.68123 15.5323L8.76247 14.2709L7.65548 12.978H8.51287L9.17214 13.7773L9.83365 12.978H10.6575L9.56501 14.2552L10.6483 15.5323H9.791L9.15087 14.7456L8.5263 15.5323H7.68123ZM10.7292 15.532V12.9776H12.2324C12.8492 12.9776 13.2096 13.3507 13.2096 13.8368C13.2096 14.4236 12.7501 14.7254 12.144 14.7254H11.4276V15.532H10.7292ZM12.182 13.5552H11.4276V14.1434H12.1797C12.3785 14.1434 12.5178 14.0198 12.5178 13.8493C12.5178 13.6678 12.3778 13.5552 12.182 13.5552ZM13.5049 15.5327V12.9783H15.0193C15.5211 12.9783 15.9707 13.2695 15.9707 13.807C15.9707 14.2665 15.5916 14.5625 15.2241 14.5916L16.1196 15.5327H15.2879L14.472 14.6252H14.1854V15.5327H13.5049ZM14.9633 13.5497H14.1854V14.0875H14.9734C15.1098 14.0875 15.2857 13.9883 15.2857 13.8186C15.2857 13.6867 15.1499 13.5497 14.9633 13.5497ZM18.7917 15.5323V14.9778H20.1537C20.3552 14.9778 20.4424 14.8756 20.4424 14.7635C20.4424 14.6561 20.3555 14.5476 20.1537 14.5476H19.5382C19.0032 14.5476 18.7053 14.2417 18.7053 13.7825C18.7053 13.3729 18.9781 12.978 19.7731 12.978H21.0984L20.8118 13.5527H19.6657C19.4466 13.5527 19.3791 13.6606 19.3791 13.7636C19.3791 13.8695 19.4625 13.9863 19.6298 13.9863H20.2746C20.8709 13.9863 21.1297 14.3037 21.1297 14.7194C21.1297 15.1663 20.8413 15.5323 20.2421 15.5323H18.7917ZM21.1896 15.5323V14.9778H22.5515C22.7531 14.9778 22.8403 14.8756 22.8403 14.7635C22.8403 14.6561 22.7533 14.5476 22.5515 14.5476H21.9361C21.4011 14.5476 21.1032 14.2417 21.1032 13.7825C21.1032 13.3729 21.376 12.978 22.171 12.978H23.4962L23.2097 13.5527H22.0635C21.8444 13.5527 21.777 13.6606 21.777 13.7636C21.777 13.8695 21.8603 13.9863 22.0277 13.9863H22.6724C23.2688 13.9863 23.5276 14.3037 23.5276 14.7194C23.5276 15.1663 23.2392 15.5323 22.64 15.5323H21.1896Z" fill="white"/>
</svg>
