<svg width="24" height="24" viewBox="0 0 24 24" fill="none" xmlns="http://www.w3.org/2000/svg">
<rect x="0.151686" y="4.15169" width="23.6966" height="15.6966" rx="1.06181" fill="white" stroke="#909090" stroke-width="0.303373"/>
<path fill-rule="evenodd" clip-rule="evenodd" d="M16.0722 12.241H16.0822H16.1017H16.1211H16.1405H16.16H16.1794H16.1988H16.2183H16.2377H16.2571H16.2765H16.296H16.3154H16.3348H16.3543H16.3737H16.3931H16.4126H16.432H16.4514H16.4709H16.4903H16.5097H16.5292H16.5486H16.568H16.5875H16.6069H16.6263H16.6457H16.6652H16.6846H16.704H16.7235H16.7429H16.7623H16.7818H16.8012H16.8206H16.8401H16.8595H16.8789H16.8983H16.9178H16.9372H16.9566H16.9761H16.9955H17.0149H17.0344H17.0538H17.0732H17.0927H17.1121H17.1315H17.151H17.1704H17.1898H17.2093H17.2287H17.2449L17.2481 12.2411C17.2541 12.2412 17.2607 12.2415 17.2676 12.2419C17.2738 12.2422 17.2803 12.2426 17.287 12.2431C17.2934 12.2436 17.2999 12.2441 17.3064 12.2447C17.313 12.2453 17.3195 12.246 17.3258 12.2467C17.3325 12.2474 17.3391 12.2482 17.3453 12.249C17.3522 12.25 17.3588 12.2509 17.3647 12.2519C17.369 12.2527 17.3729 12.2534 17.3765 12.2541L17.3841 12.2559C17.3906 12.2574 17.3971 12.259 17.4036 12.2608C17.4101 12.2626 17.4166 12.2645 17.423 12.2665C17.4295 12.2686 17.436 12.2708 17.4424 12.2731C17.449 12.2754 17.4554 12.2779 17.4619 12.2805C17.4684 12.2832 17.4749 12.286 17.4813 12.2889C17.4878 12.2919 17.4943 12.2949 17.5007 12.2982C17.5073 12.3015 17.5137 12.3049 17.5202 12.3085C17.5267 12.3122 17.5332 12.316 17.5396 12.32C17.5462 12.324 17.5526 12.3282 17.559 12.3326C17.5656 12.3371 17.5721 12.3417 17.5784 12.3464C17.585 12.3514 17.5915 12.3565 17.5979 12.3617C17.6045 12.3672 17.611 12.3729 17.6173 12.3786C17.624 12.3847 17.6304 12.3909 17.6368 12.3973C17.6434 12.404 17.6499 12.411 17.6562 12.4181C17.6629 12.4257 17.6693 12.4334 17.6756 12.4414C17.6824 12.45 17.6888 12.4588 17.6951 12.4679C17.7018 12.4778 17.7083 12.488 17.7145 12.4984C17.7214 12.5102 17.7279 12.5223 17.7339 12.5348C17.7411 12.5495 17.7476 12.5647 17.7533 12.5803C17.7611 12.6014 17.7676 12.6231 17.7728 12.6456C17.7817 12.6845 17.7864 12.7256 17.7864 12.7684C17.7864 12.8115 17.7817 12.8527 17.7728 12.8918C17.7676 12.9143 17.7611 12.9361 17.7533 12.9572C17.7475 12.9728 17.7411 12.9881 17.7339 13.0029C17.7279 13.0153 17.7214 13.0274 17.7145 13.0392C17.7083 13.0497 17.7019 13.0599 17.6951 13.0698C17.6888 13.0788 17.6823 13.0877 17.6756 13.0963C17.6693 13.1042 17.6629 13.112 17.6562 13.1196C17.6499 13.1267 17.6434 13.1336 17.6368 13.1404C17.6304 13.1468 17.6239 13.153 17.6173 13.159C17.611 13.1648 17.6045 13.1704 17.5979 13.1758C17.5915 13.1811 17.5851 13.1862 17.5784 13.1911C17.5721 13.1959 17.5656 13.2004 17.559 13.2049C17.5526 13.2092 17.5462 13.2134 17.5396 13.2174C17.5332 13.2214 17.5267 13.2252 17.5202 13.2288C17.5138 13.2324 17.5073 13.2358 17.5007 13.2391C17.4943 13.2423 17.4878 13.2454 17.4813 13.2484C17.4749 13.2513 17.4684 13.254 17.4619 13.2567C17.4554 13.2592 17.449 13.2617 17.4424 13.264C17.436 13.2663 17.4295 13.2685 17.423 13.2705C17.4166 13.2725 17.4101 13.2744 17.4036 13.2762C17.3971 13.2779 17.3906 13.2795 17.3841 13.281L17.3765 13.2827C17.3729 13.2835 17.369 13.2843 17.3647 13.285C17.3588 13.2861 17.3522 13.2871 17.3453 13.288C17.3391 13.2888 17.3325 13.2896 17.3258 13.2904C17.3195 13.2911 17.313 13.2917 17.3064 13.2923C17.2999 13.2929 17.2934 13.2934 17.287 13.2939C17.2803 13.2943 17.2738 13.2948 17.2676 13.2951C17.2607 13.2954 17.2541 13.2957 17.2481 13.2958L17.2377 13.296H17.2287H17.2093H17.1898H17.1704H17.151H17.1315H17.1121H17.0927H17.0732H17.0538H17.0344H17.0149H16.9955H16.9761H16.9566H16.9372H16.9178H16.8983H16.8789H16.8595H16.8401H16.8206H16.8012H16.7818H16.7623H16.7429H16.7235H16.704H16.6846H16.6652H16.6457H16.6263H16.6069H16.5875H16.568H16.5486H16.5292H16.5097H16.4903H16.4709H16.4514H16.432H16.4126H16.3931H16.3737H16.3543H16.3348H16.3154H16.296H16.2765H16.2571H16.2377H16.2183H16.1988H16.1794H16.16H16.1405H16.1211H16.1017H16.0822H16.0722V12.241ZM17.6368 11.0522C17.6446 11.0876 17.6488 11.1251 17.6488 11.1646C17.6488 11.204 17.6446 11.2415 17.6368 11.2769C17.6318 11.2996 17.6253 11.3215 17.6174 11.3424C17.6116 11.3577 17.6051 11.3725 17.598 11.3868C17.5919 11.3988 17.5855 11.4104 17.5785 11.4217C17.5724 11.4316 17.5659 11.4413 17.5591 11.4506C17.5529 11.4592 17.5464 11.4675 17.5397 11.4755C17.5334 11.483 17.5269 11.4903 17.5202 11.4973C17.5139 11.5039 17.5075 11.5104 17.5008 11.5166C17.4945 11.5225 17.488 11.5282 17.4814 11.5338C17.475 11.5391 17.4685 11.5442 17.4619 11.5492C17.4556 11.554 17.4491 11.5586 17.4425 11.5631C17.4361 11.5674 17.4296 11.5716 17.4231 11.5756C17.4167 11.5795 17.4102 11.5833 17.4036 11.5869C17.3973 11.5904 17.3908 11.5938 17.3842 11.597C17.3778 11.6002 17.3713 11.6032 17.3648 11.6061C17.3584 11.6089 17.3519 11.6116 17.3454 11.6142C17.3389 11.6167 17.3325 11.6191 17.3259 11.6213C17.3195 11.6235 17.313 11.6256 17.3065 11.6276C17.3001 11.6295 17.2936 11.6314 17.2871 11.633C17.2806 11.6347 17.2742 11.6362 17.2676 11.6376C17.2612 11.6391 17.2547 11.6403 17.2482 11.6415L17.2435 11.6423C17.2397 11.643 17.2347 11.6437 17.2288 11.6444C17.223 11.6451 17.2164 11.6459 17.2093 11.6466C17.2032 11.6472 17.1966 11.6478 17.1899 11.6484C17.1836 11.6489 17.177 11.6494 17.1705 11.6498C17.1639 11.6502 17.1574 11.6506 17.151 11.6508C17.1443 11.6511 17.1378 11.6513 17.1316 11.6513L17.1285 11.6513H17.1122H17.0928H17.0733H17.0539H17.0345H17.015H16.9956H16.9762H16.9567H16.9373H16.9179H16.8984H16.879H16.8596H16.8402H16.8207H16.8013H16.7819H16.7624H16.743H16.7236H16.7041H16.6847H16.6653H16.6458H16.6264H16.607H16.5876H16.5681H16.5487H16.5293H16.5098H16.4904H16.471H16.4516H16.4321H16.4127H16.3933H16.3738H16.3544H16.335H16.3155H16.2961H16.2767H16.2572H16.2378H16.2184H16.199H16.1795H16.1601H16.1407H16.1212H16.1018H16.0824H16.0722V10.6778H16.0824H16.1018H16.1212H16.1407H16.1601H16.1795H16.199H16.2184H16.2378H16.2572H16.2767H16.2961H16.3155H16.335H16.3544H16.3738H16.3933H16.4127H16.4321H16.4516H16.471H16.4904H16.5098H16.5293H16.5487H16.5681H16.5876H16.607H16.6264H16.6458H16.6653H16.6847H16.7041H16.7236H16.743H16.7624H16.7819H16.8013H16.8207H16.8402H16.8596H16.879H16.8984H16.9179H16.9373H16.9567H16.9762H16.9956H17.015H17.0345H17.0539H17.0733H17.0928H17.1122H17.1316H17.1398L17.151 10.6782C17.1574 10.6784 17.1639 10.6788 17.1705 10.6792C17.177 10.6796 17.1836 10.6801 17.1899 10.6806C17.1966 10.6812 17.2032 10.6818 17.2093 10.6824C17.2164 10.6831 17.223 10.6838 17.2288 10.6844C17.2347 10.6851 17.2397 10.6857 17.2435 10.6863L17.2482 10.6871C17.2547 10.6883 17.2612 10.6896 17.2676 10.691C17.2742 10.6924 17.2806 10.694 17.2871 10.6956C17.2936 10.6974 17.3001 10.6992 17.3065 10.7011C17.313 10.7031 17.3195 10.7052 17.3259 10.7074C17.3325 10.7097 17.3389 10.7121 17.3454 10.7146C17.3519 10.7172 17.3584 10.7199 17.3648 10.7228C17.3713 10.7257 17.3778 10.7287 17.3842 10.7319C17.3908 10.7351 17.3973 10.7385 17.4036 10.742C17.4102 10.7456 17.4167 10.7494 17.4231 10.7533C17.4296 10.7573 17.4361 10.7615 17.4425 10.7658C17.4491 10.7703 17.4556 10.7749 17.4619 10.7797C17.4685 10.7847 17.475 10.7898 17.4814 10.7952C17.488 10.8007 17.4945 10.8065 17.5008 10.8124C17.5075 10.8186 17.5139 10.825 17.5202 10.8316C17.5269 10.8387 17.5334 10.846 17.5397 10.8535C17.5464 10.8615 17.5529 10.8698 17.5591 10.8783C17.5659 10.8877 17.5724 10.8974 17.5785 10.9073C17.5855 10.9186 17.5919 10.9302 17.598 10.9422C17.6051 10.9565 17.6116 10.9713 17.6174 10.9866C17.6253 11.0075 17.6318 11.0294 17.6368 11.0522ZM20.0458 6.00195H20.0538L20.0537 16.0002C20.0537 16.0599 20.051 16.119 20.0458 16.1774C20.0412 16.2288 20.0347 16.2797 20.0263 16.3299C20.0207 16.3636 20.0142 16.3971 20.0069 16.4302C20.001 16.4572 19.9945 16.4839 19.9875 16.5105C19.9814 16.5334 19.9749 16.5561 19.9681 16.5787C19.9618 16.5991 19.9554 16.6194 19.9486 16.6396C19.9424 16.6578 19.9359 16.6759 19.9292 16.6939C19.9229 16.7107 19.9164 16.7274 19.9097 16.744C19.9035 16.7595 19.897 16.775 19.8903 16.7904C19.884 16.8049 19.8775 16.8194 19.8709 16.8338C19.8645 16.8475 19.8581 16.8611 19.8514 16.8746C19.8451 16.8876 19.8386 16.9005 19.832 16.9133C19.8257 16.9255 19.8192 16.9378 19.8126 16.9499C19.8062 16.9615 19.7997 16.9731 19.7931 16.9846C19.7868 16.9957 19.7803 17.0068 19.7737 17.0178C19.7673 17.0285 19.7608 17.0392 19.7543 17.0498C19.7479 17.0601 19.7414 17.0704 19.7348 17.0806C19.7284 17.0904 19.7219 17.1002 19.7154 17.1099C19.709 17.1194 19.7025 17.1288 19.696 17.1381C19.6895 17.1473 19.6831 17.1565 19.6765 17.1656C19.6701 17.1745 19.6636 17.1833 19.6571 17.1921C19.6507 17.2006 19.6442 17.209 19.6377 17.2175C19.6312 17.2258 19.6248 17.234 19.6182 17.2422C19.6118 17.2503 19.6053 17.2583 19.5988 17.2662C19.5924 17.274 19.5859 17.2817 19.5794 17.2893C19.5729 17.2969 19.5665 17.3045 19.5599 17.312C19.5535 17.3193 19.547 17.3265 19.5405 17.3337C19.5341 17.3409 19.5276 17.348 19.521 17.355C19.5146 17.3619 19.5082 17.3689 19.5016 17.3757C19.4952 17.3824 19.4887 17.389 19.4822 17.3957C19.4757 17.4023 19.4693 17.4089 19.4627 17.4154C19.4563 17.4217 19.4498 17.428 19.4433 17.4342C19.4369 17.4405 19.4304 17.4467 19.4239 17.4528C19.4174 17.4589 19.411 17.4648 19.4044 17.4708C19.398 17.4767 19.3915 17.4826 19.385 17.4884C19.3786 17.4941 19.3721 17.4998 19.3656 17.5055C19.3591 17.5111 19.3526 17.5166 19.3461 17.5221C19.3397 17.5276 19.3332 17.5331 19.3267 17.5384C19.3203 17.5438 19.3138 17.549 19.3073 17.5542C19.3008 17.5594 19.2944 17.5646 19.2878 17.5698C19.2814 17.5748 19.2749 17.5798 19.2684 17.5847C19.2619 17.5897 19.2555 17.5946 19.249 17.5995C19.2425 17.6043 19.236 17.609 19.2295 17.6137C19.2231 17.6184 19.2166 17.6232 19.2101 17.6278C19.2037 17.6324 19.1972 17.6369 19.1907 17.6414C19.1842 17.6458 19.1777 17.6503 19.1712 17.6547C19.1648 17.6591 19.1583 17.6633 19.1518 17.6676C19.1453 17.6719 19.1389 17.6761 19.1324 17.6803C19.1259 17.6845 19.1194 17.6885 19.1129 17.6926C19.1065 17.6967 19.1 17.7007 19.0935 17.7047C19.087 17.7086 19.0806 17.7125 19.0741 17.7164L19.0546 17.7278C19.0482 17.7315 19.0417 17.7353 19.0352 17.7389C19.0287 17.7426 19.0222 17.7462 19.0157 17.7497C19.0093 17.7533 19.0028 17.7569 18.9963 17.7604C18.9899 17.7639 18.9834 17.7672 18.9769 17.7706C18.9704 17.774 18.964 17.7775 18.9574 17.7808C18.951 17.7841 18.9445 17.7872 18.938 17.7904C18.9315 17.7936 18.9251 17.7968 18.9186 17.8C18.9121 17.8031 18.9056 17.8061 18.8991 17.8092L18.8797 17.8182L18.8603 17.8269C18.8538 17.8298 18.8473 17.8326 18.8408 17.8354C18.8344 17.8382 18.8279 17.841 18.8214 17.8437C18.815 17.8464 18.8085 17.849 18.802 17.8516C18.7955 17.8543 18.7891 17.857 18.7825 17.8595C18.7761 17.8621 18.7696 17.8645 18.7631 17.867C18.7566 17.8694 18.7502 17.8719 18.7437 17.8743L18.7242 17.8814C18.7178 17.8837 18.7113 17.886 18.7048 17.8882C18.6983 17.8905 18.6919 17.8928 18.6854 17.895C18.6789 17.8971 18.6724 17.8992 18.6659 17.9013L18.6465 17.9075C18.64 17.9095 18.6335 17.9115 18.6271 17.9135L18.6076 17.9192C18.6012 17.9211 18.5947 17.923 18.5882 17.9248C18.5817 17.9267 18.5752 17.9283 18.5688 17.9301C18.5623 17.9318 18.5558 17.9336 18.5493 17.9353L18.5299 17.9402L18.5105 17.9449L18.491 17.9495C18.4846 17.9509 18.4781 17.9523 18.4716 17.9537C18.4651 17.9551 18.4587 17.9565 18.4521 17.9579L18.4327 17.9617L18.4133 17.9654C18.4068 17.9666 18.4003 17.9679 18.3938 17.9691C18.3874 17.9702 18.3809 17.9712 18.3744 17.9723L18.355 17.9755L18.3355 17.9784L18.3161 17.9811C18.3096 17.9819 18.3032 17.9829 18.2967 17.9838C18.2902 17.9846 18.2837 17.9852 18.2772 17.986C18.2708 17.9867 18.2643 17.9875 18.2578 17.9882C18.2513 17.9889 18.2449 17.9896 18.2384 17.9902C18.2319 17.9908 18.2254 17.9913 18.2189 17.9919C18.2124 17.9925 18.206 17.9931 18.1995 17.9936C18.193 17.9941 18.1865 17.9945 18.1801 17.995L18.1606 17.9962C18.1542 17.9966 18.1477 17.997 18.1412 17.9973C18.1347 17.9977 18.1282 17.9978 18.1218 17.9981L18.1023 17.9988L18.0829 17.9993C18.0764 17.9995 18.0699 17.9995 18.0635 17.9996L18.044 17.9998L18.04 17.9999H18.0246H18.0052H17.9857H17.9663H17.9468H17.9274H17.908H17.8886H17.8691H17.8497H17.8302H17.8108H17.7914H17.7719H17.7525H17.7331H17.7136H17.6942H17.6748H17.6553H17.6359H17.6165H17.597H17.5776H17.5582H17.5387H17.5193H17.4999H17.4804H17.461H17.4415H17.4221H17.4027H17.3833H17.3638H17.3444H17.3249H17.3055H17.2861H17.2667H17.2472H17.2278H17.2083H17.1889H17.1695H17.15H17.1306H17.1112H17.0917H17.0723H17.0529H17.0334H17.014H16.9946H16.9751H16.9557H16.9363H16.9168H16.8974H16.878H16.8585H16.8391H16.8196H16.8002H16.7808H16.7614H16.7419H16.7225H16.703H16.6836H16.6642H16.6447H16.6253H16.6059H16.5864H16.567H16.5476H16.5281H16.5087H16.4893H16.4698H16.4504H16.431H16.4115H16.3921H16.3727H16.3532H16.3338H16.3144H16.2949H16.2755H16.2561H16.2366H16.2172H16.1977H16.1783H16.1589H16.1394H16.12H16.1006H16.0811H16.0617H16.0423H16.0228H16.0034H15.984H15.9645H15.9451H15.9257H15.9062H15.8868H15.8674H15.8479H15.8285H15.8091H15.7896H15.7702H15.7508H15.7313H15.7119H15.6924H15.673H15.6536H15.6341H15.6147H15.5953H15.5758H15.5564H15.537H15.5175H15.4981H15.4787H15.4592H15.4398H15.4204H15.4009H15.3815H15.3621H15.3426H15.3232H15.3038H15.2843H15.2649H15.2455H15.226H15.2066H15.1872H15.1677H15.1483H15.1288H15.0869V13.9232H15.1288H15.1483H15.1677H15.1872H15.2066H15.226H15.2455H15.2649H15.2843H15.3038H15.3232H15.3426H15.3621H15.3815H15.4009H15.4204H15.4398H15.4592H15.4787H15.4981H15.5175H15.537H15.5564H15.5758H15.5953H15.6147H15.6341H15.6536H15.673H15.6924H15.7119H15.7313H15.7508H15.7702H15.7896H15.8091H15.8285H15.8479H15.8674H15.8868H15.9062H15.9257H15.9451H15.9645H15.984H16.0034H16.0228H16.0423H16.0617H16.0811H16.1006H16.12H16.1394H16.1589H16.1783H16.1977H16.2172H16.2366H16.2561H16.2755H16.2949H16.3144H16.3338H16.3532H16.3727H16.3921H16.4115H16.431H16.4504H16.4698H16.4893H16.5087H16.5281H16.5476H16.567H16.5864H16.6059H16.6253H16.6447H16.6642H16.6836H16.703H16.7225H16.7419H16.7614H16.7808H16.8002H16.8196H16.8391H16.8585H16.878H16.8974H16.9168H16.9363H16.9557H16.9751H16.9946H17.014H17.0334H17.0529H17.0723H17.0917H17.1112H17.1306H17.15H17.1695H17.1889H17.2083H17.2278H17.2472H17.2667H17.2861H17.3055H17.3249H17.3444H17.3638H17.3833H17.4027H17.4221H17.4415H17.461H17.4804H17.4999H17.5193H17.5387H17.5582H17.5776H17.597H17.6165H17.6359H17.6553H17.6748H17.6942H17.7136H17.7331H17.7525H17.7719H17.7914H17.8108H17.8302H17.8497H17.8691H17.8886H17.908H17.9274H17.9468H17.9663H17.9857H18.0052H18.0246H18.044H18.0635H18.0829H18.1023H18.1218H18.1412H18.1606H18.1801H18.1995H18.2098L18.2189 13.9231L18.2384 13.923L18.2578 13.9226C18.2643 13.9224 18.2708 13.9223 18.2772 13.9221C18.2838 13.9219 18.2902 13.9216 18.2967 13.9213L18.3161 13.9204L18.3355 13.9192L18.355 13.9179L18.3744 13.9164L18.3938 13.9146C18.4003 13.914 18.4068 13.9134 18.4133 13.9127C18.4198 13.9121 18.4262 13.9113 18.4327 13.9105L18.4521 13.9082C18.4587 13.9074 18.4651 13.9066 18.4716 13.9057C18.4781 13.9048 18.4846 13.9038 18.491 13.9028C18.4975 13.9018 18.504 13.9009 18.5105 13.8998L18.5299 13.8966L18.5493 13.8931C18.5558 13.8919 18.5623 13.8908 18.5688 13.8895C18.5753 13.8882 18.5817 13.8868 18.5882 13.8855L18.6076 13.8813C18.6141 13.8799 18.6206 13.8784 18.6271 13.8769C18.6336 13.8754 18.64 13.8738 18.6465 13.8722C18.653 13.8706 18.6595 13.869 18.6659 13.8673C18.6724 13.8656 18.6789 13.8639 18.6854 13.8621C18.6919 13.8603 18.6983 13.8585 18.7048 13.8566C18.7113 13.8547 18.7178 13.8528 18.7242 13.8509L18.7437 13.8448C18.7502 13.8428 18.7566 13.8406 18.7631 13.8385C18.7696 13.8363 18.7761 13.8341 18.7825 13.8319C18.7891 13.8296 18.7955 13.8273 18.802 13.825C18.8085 13.8226 18.815 13.8201 18.8214 13.8176C18.8279 13.8151 18.8344 13.8126 18.8408 13.81C18.8473 13.8074 18.8539 13.8048 18.8603 13.8021C18.8668 13.7994 18.8733 13.7966 18.8797 13.7938C18.8862 13.791 18.8927 13.7881 18.8991 13.7851C18.9057 13.7821 18.9121 13.7792 18.9186 13.7761C18.9251 13.773 18.9316 13.7699 18.938 13.7667C18.9446 13.7635 18.951 13.7602 18.9574 13.7568C18.964 13.7534 18.9704 13.75 18.9769 13.7465C18.9834 13.7429 18.9899 13.7394 18.9963 13.7358C19.0028 13.7321 19.0093 13.7283 19.0157 13.7246C19.0223 13.7207 19.0288 13.7168 19.0352 13.7129C19.0417 13.7088 19.0482 13.7047 19.0546 13.7006C19.0612 13.6964 19.0676 13.6921 19.0741 13.6878C19.0806 13.6834 19.0871 13.6789 19.0935 13.6744C19.1 13.6697 19.1065 13.6651 19.1129 13.6603C19.1195 13.6555 19.126 13.6506 19.1324 13.6456C19.1389 13.6406 19.1454 13.6354 19.1518 13.6302C19.1584 13.6249 19.1648 13.6195 19.1712 13.6141C19.1778 13.6085 19.1843 13.6028 19.1907 13.597C19.1972 13.5911 19.2037 13.5851 19.2101 13.5791C19.2167 13.5728 19.2232 13.5665 19.2295 13.5601C19.2361 13.5535 19.2426 13.5468 19.249 13.54C19.2556 13.533 19.262 13.5259 19.2684 13.5187C19.275 13.5113 19.2815 13.5037 19.2878 13.496C19.2945 13.488 19.3009 13.48 19.3073 13.4718C19.3139 13.4632 19.3204 13.4546 19.3267 13.4458C19.3334 13.4365 19.3398 13.427 19.3461 13.4174C19.3528 13.4073 19.3593 13.397 19.3656 13.3866C19.3723 13.3754 19.3788 13.3641 19.385 13.3526C19.3918 13.3401 19.3983 13.3275 19.4044 13.3146C19.4113 13.3003 19.4178 13.2857 19.4239 13.2709C19.4309 13.254 19.4374 13.2368 19.4433 13.2193C19.4506 13.1977 19.4571 13.1757 19.4627 13.1533C19.471 13.1206 19.4775 13.0871 19.4822 13.0527C19.4878 13.0109 19.4908 12.968 19.4908 12.924C19.4908 12.881 19.4878 12.8394 19.4822 12.7989C19.4775 12.7656 19.471 12.7332 19.4627 12.7016C19.4571 12.6801 19.4506 12.659 19.4433 12.6383C19.4374 12.6213 19.4309 12.6046 19.4239 12.5882C19.4178 12.574 19.4113 12.56 19.4044 12.5462C19.3983 12.5338 19.3918 12.5215 19.385 12.5095C19.3788 12.4984 19.3723 12.4874 19.3656 12.4766C19.3593 12.4666 19.3528 12.4567 19.3461 12.4469C19.3398 12.4377 19.3334 12.4285 19.3267 12.4196C19.3204 12.4111 19.3139 12.4028 19.3073 12.3945C19.3009 12.3866 19.2945 12.3788 19.2878 12.3711C19.2815 12.3637 19.275 12.3564 19.2684 12.3492C19.262 12.3422 19.2556 12.3354 19.249 12.3286C19.2426 12.3221 19.2361 12.3156 19.2295 12.3093C19.2232 12.3031 19.2167 12.297 19.2101 12.291C19.2037 12.2852 19.1972 12.2794 19.1907 12.2737C19.1843 12.2681 19.1778 12.2627 19.1712 12.2573C19.1648 12.252 19.1584 12.2468 19.1518 12.2416C19.1454 12.2366 19.1389 12.2316 19.1324 12.2267C19.1259 12.2219 19.1195 12.2172 19.1129 12.2125C19.1065 12.2079 19.1 12.2034 19.0935 12.1989C19.0871 12.1946 19.0806 12.1902 19.0741 12.186C19.0676 12.1818 19.0612 12.1776 19.0546 12.1736C19.0482 12.1696 19.0417 12.1656 19.0352 12.1617C19.0288 12.1579 19.0223 12.1541 19.0157 12.1504C19.0093 12.1467 19.0028 12.1431 18.9963 12.1395C18.9899 12.136 18.9834 12.1325 18.9769 12.1291C18.9705 12.1258 18.964 12.1224 18.9574 12.1191C18.951 12.1159 18.9445 12.1127 18.938 12.1095C18.9316 12.1064 18.9251 12.1033 18.9186 12.1003C18.9121 12.0973 18.9057 12.0945 18.8991 12.0916C18.8927 12.0887 18.8862 12.0859 18.8797 12.0832C18.8733 12.0804 18.8668 12.0777 18.8603 12.0751C18.8538 12.0725 18.8474 12.0698 18.8408 12.0673C18.8344 12.0648 18.8279 12.0623 18.8214 12.0599C18.815 12.0575 18.8085 12.0551 18.802 12.0528C18.7955 12.0505 18.7891 12.0483 18.7825 12.046C18.7761 12.0438 18.7696 12.0416 18.7631 12.0395C18.7567 12.0374 18.7502 12.0353 18.7437 12.0333C18.7372 12.0313 18.7307 12.0293 18.7242 12.0274L18.7048 12.0217C18.6983 12.0199 18.6919 12.018 18.6854 12.0163C18.6789 12.0145 18.6724 12.0129 18.6659 12.0112C18.6595 12.0095 18.653 12.0079 18.6465 12.0063C18.64 12.0047 18.6336 12.0032 18.6271 12.0017C18.6206 12.0002 18.6141 11.9987 18.6076 11.9973C18.6012 11.9959 18.5947 11.9945 18.5882 11.9932C18.5817 11.9918 18.5753 11.9905 18.5688 11.9892L18.5493 11.9855L18.5299 11.9821C18.5234 11.981 18.517 11.9798 18.5105 11.9788L18.491 11.9758C18.4846 11.9748 18.4781 11.9739 18.4716 11.973L18.4521 11.9703L18.4327 11.9679L18.4133 11.9657L18.3938 11.9637L18.3744 11.9619L18.355 11.9603L18.337 11.9589L18.337 11.9358L18.355 11.933L18.3744 11.9298C18.3809 11.9287 18.3874 11.9276 18.3938 11.9265L18.4133 11.9227C18.4198 11.9215 18.4263 11.9201 18.4327 11.9188L18.4521 11.9146C18.4587 11.9131 18.4652 11.9116 18.4716 11.9101C18.4781 11.9085 18.4846 11.9069 18.491 11.9053C18.4976 11.9036 18.504 11.9019 18.5105 11.9002C18.517 11.8984 18.5235 11.8966 18.5299 11.8948C18.5364 11.8929 18.5429 11.8911 18.5493 11.8891C18.5558 11.8872 18.5623 11.8852 18.5688 11.8831C18.5753 11.881 18.5817 11.8789 18.5882 11.8767C18.5947 11.8745 18.6012 11.8723 18.6076 11.87C18.6142 11.8677 18.6206 11.8654 18.6271 11.863C18.6336 11.8605 18.6401 11.8581 18.6465 11.8556C18.653 11.853 18.6595 11.8504 18.6659 11.8478C18.6725 11.8451 18.6789 11.8424 18.6854 11.8396C18.6919 11.8367 18.6984 11.8339 18.7048 11.8309C18.7113 11.828 18.7178 11.8249 18.7242 11.8219C18.7308 11.8187 18.7372 11.8156 18.7437 11.8124C18.7502 11.8091 18.7567 11.8057 18.7631 11.8024C18.7696 11.7989 18.7761 11.7954 18.7825 11.7919C18.7891 11.7883 18.7956 11.7846 18.802 11.7809C18.8085 11.7771 18.815 11.7733 18.8214 11.7694C18.828 11.7654 18.8344 11.7613 18.8408 11.7572C18.8474 11.7531 18.8539 11.7488 18.8603 11.7445C18.8668 11.7401 18.8733 11.7356 18.8797 11.7311C18.8863 11.7265 18.8928 11.7218 18.8991 11.717C18.9057 11.7121 18.9122 11.7072 18.9186 11.7022C18.9251 11.6971 18.9316 11.6919 18.938 11.6866C18.9446 11.6812 18.9511 11.6756 18.9574 11.6701C18.964 11.6643 18.9705 11.6585 18.9769 11.6526C18.9835 11.6465 18.99 11.6403 18.9963 11.6341C19.0029 11.6276 19.0094 11.6211 19.0157 11.6145C19.0224 11.6075 19.0288 11.6006 19.0352 11.5935C19.0418 11.5861 19.0483 11.5787 19.0546 11.5711C19.0613 11.5633 19.0677 11.5553 19.0741 11.5472C19.0807 11.5386 19.0872 11.53 19.0935 11.5213C19.1002 11.512 19.1066 11.5026 19.1129 11.4932C19.1196 11.4831 19.1261 11.4729 19.1324 11.4625C19.1391 11.4513 19.1456 11.4399 19.1518 11.4285C19.1586 11.4159 19.1651 11.4031 19.1712 11.3902C19.1781 11.3757 19.1846 11.3609 19.1907 11.346C19.1977 11.3287 19.2042 11.3111 19.2101 11.2933C19.2175 11.2709 19.224 11.2482 19.2295 11.2252C19.2385 11.1878 19.245 11.1496 19.249 11.1108C19.2521 11.0802 19.2538 11.0492 19.2538 11.0178C19.2538 10.9847 19.2521 10.9525 19.249 10.921C19.245 10.8808 19.2384 10.842 19.2295 10.8045C19.224 10.781 19.2175 10.7582 19.2101 10.7358C19.2042 10.718 19.1977 10.7004 19.1907 10.6833C19.1846 10.6685 19.1781 10.6539 19.1712 10.6396C19.1651 10.6269 19.1586 10.6144 19.1518 10.6021C19.1456 10.5908 19.1391 10.5797 19.1324 10.5687C19.1261 10.5586 19.1196 10.5486 19.1129 10.5387C19.1066 10.5295 19.1002 10.5204 19.0935 10.5114C19.0872 10.503 19.0807 10.4946 19.0741 10.4864C19.0677 10.4785 19.0613 10.4707 19.0546 10.463C19.0483 10.4558 19.0418 10.4486 19.0352 10.4415C19.0288 10.4347 19.0224 10.428 19.0157 10.4214C19.0094 10.415 19.0029 10.4087 18.9963 10.4024C18.9899 10.3964 18.9835 10.3904 18.9769 10.3846C18.9705 10.3789 18.964 10.3733 18.9574 10.3678C18.951 10.3624 18.9446 10.3571 18.938 10.3518C18.9316 10.3467 18.9251 10.3417 18.9186 10.3368C18.9122 10.3319 18.9057 10.3272 18.8991 10.3225C18.8927 10.3179 18.8863 10.3134 18.8797 10.3089C18.8733 10.3046 18.8668 10.3003 18.8603 10.2961C18.8539 10.2919 18.8474 10.2878 18.8408 10.2838C18.8344 10.2798 18.8279 10.2759 18.8214 10.2721C18.815 10.2683 18.8085 10.2646 18.802 10.2609C18.7956 10.2573 18.7891 10.2538 18.7825 10.2503C18.7761 10.2469 18.7696 10.2435 18.7631 10.2402C18.7567 10.2369 18.7502 10.2336 18.7437 10.2305C18.7372 10.2273 18.7308 10.2242 18.7242 10.2212C18.7178 10.2182 18.7113 10.2152 18.7048 10.2124C18.6984 10.2095 18.6919 10.2068 18.6854 10.204C18.6789 10.2013 18.6724 10.1986 18.6659 10.196C18.6595 10.1934 18.653 10.1908 18.6465 10.1883C18.6401 10.1858 18.6336 10.1834 18.6271 10.181C18.6206 10.1786 18.6142 10.1763 18.6076 10.174C18.6012 10.1717 18.5947 10.1695 18.5882 10.1674C18.5817 10.1652 18.5753 10.1631 18.5688 10.1611C18.5623 10.159 18.5558 10.157 18.5493 10.155C18.5429 10.1531 18.5364 10.1511 18.5299 10.1493C18.5235 10.1474 18.517 10.1456 18.5105 10.1439C18.504 10.1421 18.4975 10.1404 18.491 10.1387L18.4716 10.1338C18.4651 10.1322 18.4587 10.1307 18.4521 10.1292C18.4457 10.1277 18.4392 10.1263 18.4327 10.1249L18.4133 10.1207C18.4068 10.1194 18.4004 10.1181 18.3938 10.1168C18.3874 10.1156 18.3809 10.1144 18.3744 10.1132L18.355 10.1099C18.3485 10.1088 18.3421 10.1077 18.3355 10.1066L18.3161 10.1037L18.2967 10.101L18.2772 10.0984L18.2578 10.0961L18.2384 10.0941L18.2189 10.0921L18.1995 10.0904L18.1801 10.0889L18.1606 10.0876L18.1412 10.0865L18.1335 10.086L18.1218 10.0853L18.1023 10.0842L18.0829 10.0831L18.0635 10.0821L18.044 10.0812L18.0246 10.0803L18.0052 10.0796L17.9857 10.079L17.9663 10.0786L17.9468 10.0784L17.9361 10.0783H17.9274H17.908H17.8886H17.8691H17.8497H17.8302H17.8108H17.7914H17.7719H17.7525H17.7331H17.7136H17.6942H17.6748H17.6553H17.6359H17.6165H17.597H17.5776H17.5582H17.5387H17.5193H17.4999H17.4804H17.461H17.4415H17.4221H17.4027H17.3833H17.3638H17.3444H17.3249H17.3055H17.2861H17.2667H17.2472H17.2278H17.2083H17.1889H17.1695H17.15H17.1306H17.1112H17.0917H17.0723H17.0529H17.0334H17.014H16.9946H16.9751H16.9557H16.9363H16.9168H16.8974H16.878H16.8585H16.8391H16.8196H16.8002H16.7808H16.7614H16.7419H16.7225H16.703H16.6836H16.6642H16.6447H16.6253H16.6059H16.5864H16.567H16.5476H16.5281H16.5087H16.4893H16.4698H16.4504H16.431H16.4115H16.3921H16.3727H16.3532H16.3338H16.3144H16.2949H16.2755H16.2561H16.2366H16.2172H16.1977H16.1783H16.1589H16.1394H16.12H16.1006H16.0811H16.0617H16.0423H16.0228H16.0034H15.984H15.9645H15.9451H15.9257H15.9062H15.8868H15.8674H15.8479H15.8285H15.8091H15.7896H15.7702H15.7508H15.7313H15.7119H15.6924H15.673H15.6536H15.6341H15.6147H15.5953H15.5758H15.5564H15.537H15.5175H15.4981H15.4787H15.4592H15.4398H15.4204H15.4009H15.3815H15.3621H15.3426H15.3232H15.3038H15.2843H15.2649H15.2455H15.226H15.2066H15.1872H15.1677H15.1483H15.1288H15.0869V8.00177C15.0869 7.86207 15.1014 7.72575 15.1288 7.59412C15.1347 7.56594 15.1412 7.53799 15.1483 7.51027C15.1543 7.48655 15.1608 7.463 15.1677 7.43963C15.1739 7.41875 15.1803 7.39802 15.1872 7.37743C15.1934 7.35862 15.1998 7.3399 15.2066 7.32135C15.2128 7.30414 15.2193 7.28702 15.226 7.27003C15.2323 7.25416 15.2388 7.23837 15.2455 7.22271C15.2518 7.20793 15.2582 7.19321 15.2649 7.17861C15.2712 7.16474 15.2777 7.15097 15.2843 7.13727C15.2906 7.1242 15.2972 7.11123 15.3038 7.09832C15.3101 7.08591 15.3166 7.07359 15.3232 7.06132C15.3295 7.0495 15.336 7.03776 15.3426 7.02608C15.349 7.01475 15.3555 7.00352 15.3621 6.99234C15.3685 6.9815 15.3749 6.9707 15.3815 6.96C15.3879 6.94962 15.3944 6.93931 15.4009 6.92906C15.4073 6.91913 15.4138 6.90929 15.4204 6.89948C15.4268 6.88988 15.4332 6.88032 15.4398 6.87083C15.4462 6.86154 15.4526 6.85224 15.4592 6.84306C15.4656 6.83417 15.4721 6.82539 15.4787 6.8166C15.4851 6.80796 15.4916 6.79939 15.4981 6.79086C15.5046 6.78247 15.511 6.77404 15.5175 6.76575C15.5239 6.75769 15.5305 6.74975 15.537 6.74179C15.5434 6.73393 15.5499 6.72614 15.5564 6.7184C15.5628 6.71075 15.5693 6.70311 15.5758 6.69556C15.5822 6.6882 15.5888 6.68097 15.5953 6.6737C15.6017 6.66651 15.6082 6.65929 15.6147 6.65219C15.6211 6.64523 15.6276 6.63834 15.6341 6.63146C15.6406 6.62467 15.6471 6.61794 15.6536 6.61124C15.66 6.60463 15.6665 6.59802 15.673 6.5915C15.6794 6.58508 15.6859 6.57876 15.6924 6.57244C15.6989 6.56616 15.7053 6.55981 15.7119 6.55362C15.7183 6.54755 15.7248 6.54163 15.7313 6.53565C15.7378 6.5297 15.7442 6.52373 15.7508 6.51786C15.7572 6.51209 15.7637 6.50643 15.7702 6.50075C15.7766 6.4951 15.7831 6.48945 15.7896 6.48389C15.7961 6.4784 15.8025 6.47299 15.8091 6.46759C15.8155 6.46223 15.822 6.45688 15.8285 6.45161C15.8349 6.44637 15.8414 6.44121 15.8479 6.43607L15.8674 6.42089L15.8868 6.40611C15.8932 6.40126 15.8997 6.39645 15.9062 6.39168C15.9127 6.38696 15.9191 6.38226 15.9257 6.3776L15.9451 6.3639C15.9515 6.3594 15.958 6.35494 15.9645 6.35052L15.984 6.33745L16.0034 6.32474C16.0099 6.32056 16.0163 6.3164 16.0228 6.31231L16.0423 6.30024C16.0488 6.29626 16.0552 6.29228 16.0617 6.28837C16.0681 6.2845 16.0747 6.28074 16.0811 6.27695C16.0876 6.27316 16.094 6.26934 16.1006 6.26563C16.107 6.26196 16.1135 6.25843 16.12 6.25483C16.1265 6.25123 16.1329 6.24757 16.1394 6.24405C16.1459 6.24058 16.1524 6.23722 16.1589 6.23381C16.1654 6.2304 16.1718 6.22698 16.1783 6.22364C16.1847 6.22032 16.1913 6.21711 16.1977 6.21388C16.2042 6.21066 16.2107 6.20743 16.2172 6.20428L16.2366 6.19495C16.2431 6.1919 16.2496 6.18892 16.2561 6.18593C16.2625 6.18296 16.269 6.17993 16.2755 6.17702C16.2819 6.17414 16.2884 6.17139 16.2949 6.16858C16.3014 6.16576 16.3078 6.1629 16.3144 6.16014C16.3208 6.15743 16.3273 6.15483 16.3338 6.15218C16.3403 6.14954 16.3467 6.14687 16.3532 6.14429L16.3727 6.13669L16.3921 6.12935C16.3986 6.12692 16.405 6.12446 16.4115 6.1221C16.418 6.11977 16.4245 6.11758 16.431 6.11531C16.4374 6.11303 16.4439 6.11071 16.4504 6.10851C16.4568 6.10632 16.4633 6.10425 16.4698 6.10212L16.4893 6.09587C16.4957 6.09382 16.5022 6.09176 16.5087 6.08978C16.5151 6.08781 16.5217 6.08595 16.5281 6.08405C16.5346 6.08213 16.5411 6.08015 16.5476 6.07831C16.554 6.07648 16.5605 6.07479 16.567 6.07303C16.5735 6.07127 16.5799 6.06949 16.5864 6.0678L16.6059 6.0628C16.6123 6.06119 16.6188 6.05965 16.6253 6.0581C16.6318 6.05655 16.6382 6.05489 16.6447 6.0534C16.6512 6.05193 16.6577 6.05058 16.6642 6.04916L16.6836 6.04495L16.703 6.04097C16.7095 6.03969 16.716 6.03849 16.7225 6.03727C16.729 6.03604 16.7354 6.03473 16.7419 6.03356C16.7484 6.03239 16.7549 6.0314 16.7614 6.03032L16.7808 6.02712C16.7873 6.02609 16.7937 6.02504 16.8002 6.02408C16.8067 6.02312 16.8132 6.02227 16.8196 6.02137C16.8261 6.02048 16.8326 6.0195 16.8391 6.01867C16.8455 6.01784 16.852 6.0171 16.8585 6.01633L16.878 6.01413C16.8844 6.01342 16.8909 6.01264 16.8974 6.012C16.9038 6.01136 16.9103 6.01086 16.9168 6.01029L16.9363 6.00858L16.9557 6.00712C16.9622 6.00666 16.9686 6.00629 16.9751 6.00589C16.9816 6.0055 16.9881 6.00501 16.9946 6.00467C17.001 6.00434 17.0075 6.00414 17.014 6.00387L17.0334 6.00315C17.0399 6.00294 17.0464 6.00267 17.0529 6.00253C17.0593 6.00239 17.0658 6.00237 17.0723 6.00227C17.0788 6.00218 17.0852 6.00207 17.0917 6.00203L17.0966 6.00197H17.1112H17.1306H17.15H17.1695H17.1889H17.2083H17.2278H17.2472H17.2667H17.2861H17.3055H17.3249H17.3444H17.3638H17.3833H17.4027H17.4221H17.4415H17.461H17.4804H17.4999H17.5193H17.5387H17.5582H17.5776H17.597H17.6165H17.6359H17.6553H17.6748H17.6942H17.7136H17.7331H17.7525H17.7719H17.7914H17.8108H17.8302H17.8497H17.8691H17.8886H17.908H17.9274H17.9468H17.9663H17.9857H18.0052H18.0246H18.044H18.0635H18.0829H18.1023H18.1218H18.1412H18.1606H18.1801H18.1995H18.2189H18.2384H18.2578H18.2772H18.2967H18.3161H18.3355H18.355H18.3744H18.3938H18.4133H18.4327H18.4521H18.4716H18.491H18.5105H18.5299H18.5493H18.5688H18.5882H18.6076H18.6271H18.6465H18.6659H18.6854H18.7048H18.7242H18.7437H18.7631H18.7825H18.802H18.8214H18.8408H18.8603H18.8797H18.8991H18.9186H18.938H18.9574H18.9769H18.9963H19.0157H19.0352H19.0546H19.0741H19.0935H19.1129H19.1324H19.1518H19.1712H19.1907H19.2101H19.2295H19.249H19.2684H19.2878H19.3073H19.3267H19.3461H19.3656H19.385H19.4044H19.4239H19.4433H19.4627H19.4822H19.5016H19.521H19.5405H19.5599H19.5794H19.5988H19.6182H19.6377H19.6571H19.6765H19.696H19.7154H19.7348H19.7543H19.7737H19.7931H19.8126H19.832H19.8514H19.8709H19.8903H19.9097H19.9292H19.9486H19.9681H19.9875H20.0069H20.0263H20.0458V6.00195Z" fill="#54B230"/>
<path fill-rule="evenodd" clip-rule="evenodd" d="M3.94629 12.9383V7.9998C3.94629 7.8605 3.96066 7.72453 3.98796 7.59326C3.99382 7.56507 4.00033 7.53714 4.00737 7.5094C4.01339 7.48565 4.01988 7.46209 4.02676 7.43868C4.0329 7.41782 4.03938 7.39712 4.04616 7.37655C4.05237 7.35772 4.0588 7.33897 4.06557 7.32039C4.07183 7.30319 4.07824 7.28609 4.08496 7.26912C4.09123 7.25325 4.0977 7.23743 4.10437 7.22175C4.11067 7.20697 4.11713 7.19228 4.12376 7.1777C4.13008 7.16383 4.13655 7.15007 4.14316 7.13638C4.14947 7.12329 4.15598 7.1103 4.16257 7.09738C4.1689 7.08496 4.17537 7.07265 4.18196 7.06039C4.18831 7.04857 4.19478 7.03683 4.20135 7.02515C4.20772 7.01384 4.21418 7.0026 4.22076 6.99143C4.22714 6.98058 4.23357 6.96977 4.24016 6.95905C4.24654 6.94869 4.25301 6.9384 4.25957 6.92816C4.26591 6.91824 4.27244 6.90839 4.27896 6.89858C4.28536 6.88899 4.2918 6.87942 4.29835 6.86993C4.3048 6.86062 4.31118 6.85133 4.31776 6.84213C4.32413 6.83325 4.33065 6.82449 4.33716 6.81571C4.34357 6.80707 4.35003 6.79849 4.35657 6.78997C4.36299 6.78158 4.36941 6.77314 4.37596 6.76485C4.38234 6.75681 4.38886 6.74889 4.39535 6.74094C4.40177 6.73308 4.40822 6.72526 4.41476 6.7175C4.42119 6.70987 4.42762 6.70226 4.43416 6.69472C4.44055 6.68735 4.44706 6.6801 4.45357 6.67282C4.45999 6.66561 4.46642 6.65841 4.47296 6.65131C4.47936 6.64435 4.48586 6.63749 4.49235 6.63062C4.49878 6.62382 4.50524 6.61709 4.51176 6.61039C4.51819 6.60378 4.52463 6.59717 4.53116 6.59065C4.53757 6.58423 4.54408 6.57791 4.55057 6.5716C4.55703 6.56531 4.56342 6.55897 4.56996 6.55278C4.57636 6.54672 4.58288 6.5408 4.58936 6.53482C4.59581 6.52885 4.60223 6.52287 4.60877 6.517C4.61518 6.51124 4.62168 6.50559 4.62816 6.49991C4.63462 6.49427 4.64104 6.4886 4.64757 6.48304C4.654 6.47755 4.66047 6.47216 4.66696 6.46675C4.67339 6.46139 4.67985 6.45603 4.68636 6.45076C4.69278 6.44554 4.69927 6.44037 4.70577 6.43522C4.71221 6.43012 4.71865 6.42507 4.72516 6.42004C4.73159 6.41507 4.73808 6.41016 4.74457 6.40526C4.75101 6.40041 4.75747 6.39558 4.76396 6.39082L4.78336 6.37677C4.7898 6.37215 4.79626 6.36756 4.80277 6.36301C4.80919 6.35852 4.81567 6.35407 4.82216 6.34966C4.8286 6.34526 4.83506 6.34089 4.84155 6.33657C4.848 6.3323 4.85447 6.32809 4.86096 6.32389C4.86741 6.31971 4.87385 6.3155 4.88036 6.31139C4.88678 6.30733 4.89327 6.30336 4.89977 6.29936C4.90623 6.29538 4.91265 6.29135 4.91916 6.28745C4.92557 6.28359 4.93208 6.27985 4.93855 6.27606C4.94503 6.27226 4.95144 6.26841 4.95796 6.26468C4.96437 6.26102 4.9709 6.25752 4.97736 6.25392C4.98383 6.25032 4.99026 6.24667 4.99677 6.24313C5.00319 6.23965 5.00968 6.23629 5.01616 6.23288C5.02262 6.22947 5.02906 6.22605 5.03555 6.22271C5.042 6.2194 5.04847 6.21615 5.05496 6.2129L5.07436 6.20333C5.08082 6.20018 5.08728 6.19703 5.09377 6.19396C5.10021 6.19091 5.10669 6.18795 5.11316 6.18495C5.11964 6.18196 5.12605 6.17891 5.13255 6.176C5.13898 6.1731 5.14549 6.17038 5.15196 6.16757C5.15842 6.16475 5.16487 6.16189 5.17136 6.15914C5.1778 6.15642 5.18429 6.15379 5.19077 6.15114L5.21016 6.14327L5.22955 6.13562L5.24896 6.12829C5.25544 6.12586 5.26185 6.12335 5.26836 6.12098C5.27478 6.11865 5.28131 6.11647 5.28777 6.1142C5.29423 6.11193 5.30067 6.10963 5.30716 6.10742L5.32655 6.10097L5.34596 6.09472C5.35242 6.09267 5.35887 6.09057 5.36536 6.08859C5.37178 6.08662 5.37829 6.08475 5.38475 6.08285C5.39123 6.08093 5.39767 6.07898 5.40416 6.07712C5.4106 6.07528 5.41708 6.07357 5.42355 6.07179L5.44296 6.06656C5.44942 6.06487 5.45587 6.06314 5.46236 6.06151C5.4688 6.05988 5.47529 6.05839 5.48175 6.05682C5.48821 6.05525 5.49467 6.05362 5.50116 6.05212C5.5076 6.05063 5.5141 6.04924 5.52056 6.04781L5.53997 6.04362C5.54642 6.04225 5.55287 6.04086 5.55936 6.03956C5.5658 6.03828 5.57229 6.0371 5.57875 6.03586C5.58523 6.03463 5.59167 6.03335 5.59816 6.03219C5.60462 6.03102 5.61108 6.02996 5.61756 6.02886L5.63697 6.02566C5.64342 6.02463 5.64987 6.02353 5.65636 6.02256C5.6628 6.02158 5.66929 6.02076 5.67575 6.01985C5.68221 6.01896 5.68867 6.018 5.69516 6.01715L5.71456 6.01473L5.73397 6.01254C5.74044 6.01182 5.74687 6.01099 5.75336 6.01033C5.7598 6.00968 5.76629 6.0092 5.77275 6.00861L5.79216 6.00691C5.79862 6.00637 5.80508 6.00584 5.81156 6.00537C5.81802 6.00491 5.82449 6.00454 5.83097 6.00414C5.83744 6.00374 5.84388 6.00328 5.85036 6.00293C5.8568 6.00258 5.86328 6.00234 5.86975 6.00205L5.88916 6.00131C5.89562 6.00109 5.90207 6.00075 5.90856 6.00059C5.915 6.00043 5.92149 6.00045 5.92795 6.00035C5.93441 6.00026 5.94088 6.00014 5.94736 6.00011L5.96675 6H5.98616H6.00556H6.02495H6.04436H6.06375H6.08316H6.10256H6.12195H6.14136H6.16075H6.18016H6.19956H6.21895H6.23836H6.25775H6.27716H6.29656H6.31595H6.33536H6.35475H6.37416H6.39356H6.41295H6.43236H6.45176H6.47116H6.49056H6.50995H6.52936H6.54876H6.56817H6.58756H6.60695H6.62636H6.64576H6.66515H6.68456H6.70395H6.72336H6.74276H6.76215H6.78156H6.80095H6.82036H6.83976H6.85915H6.87856H6.89795H6.91736H6.93676H6.95615H6.97556H6.99495H7.01436H7.03376H7.05315H7.07256H7.09195H7.11135H7.13076H7.15015H7.16956H7.18895H7.20836H7.22776H7.24715H7.26656H7.28595H7.30535H7.32476H7.34415H7.36356H7.38296H7.40235H7.42176H7.44115H7.46056H7.47996H7.49935H7.51876H7.53815H7.55756H7.57696H7.59635H7.61576H7.63515H7.65455H7.67396H7.69335H7.71276H7.73215H7.75156H7.77096H7.79035H7.80976H7.82915H7.84856H7.86796H7.88735H7.90676H7.92615H7.94555H7.96496H7.98435H8.00376H8.02315H8.04256H8.06196H8.08135H8.10076H8.12015H8.13955H8.15896H8.17835H8.19776H8.21715H8.23655H8.25596H8.27535H8.29475H8.31416H8.33355H8.35296H8.37235H8.39176H8.41116H8.43055H8.44996H8.46935H8.48875H8.50816H8.52755H8.54696H8.56635H8.58575H8.60516H8.62455H8.64396H8.66335H8.68275H8.70216H8.72155H8.74096H8.76035H8.77975H8.79916H8.81855H8.83794H8.85735H8.87675H8.89616H8.91262V15.9983C8.91262 16.0852 8.907 16.1709 8.89616 16.255C8.89094 16.2954 8.88437 16.3355 8.87675 16.3751C8.87095 16.4053 8.86451 16.4353 8.85735 16.4649C8.85133 16.4899 8.84489 16.5148 8.83794 16.5394C8.83184 16.561 8.82535 16.5825 8.81855 16.6038C8.81238 16.623 8.80589 16.6422 8.79916 16.6612C8.79292 16.6788 8.78646 16.6964 8.77975 16.7137C8.77348 16.73 8.76702 16.7461 8.76035 16.7621C8.75407 16.7772 8.7476 16.7922 8.74096 16.8071C8.73465 16.8213 8.72817 16.8353 8.72155 16.8493C8.71524 16.8626 8.70876 16.8759 8.70216 16.889C8.69581 16.9017 8.68935 16.9142 8.68275 16.9267C8.6764 16.9387 8.66994 16.9507 8.66335 16.9625C8.65697 16.974 8.65056 16.9855 8.64396 16.9968C8.6376 17.0077 8.63112 17.0186 8.62455 17.0294C8.6182 17.0399 8.6117 17.0502 8.60516 17.0606C8.59878 17.0707 8.5923 17.0807 8.58575 17.0907C8.57934 17.1004 8.57293 17.1101 8.56635 17.1197C8.55997 17.1291 8.55348 17.1383 8.54696 17.1475C8.54058 17.1566 8.53409 17.1655 8.52755 17.1744C8.52114 17.1831 8.5147 17.1919 8.50816 17.2005C8.50176 17.2089 8.49529 17.2173 8.48875 17.2257C8.48235 17.2338 8.47586 17.2419 8.46935 17.2499C8.46293 17.2579 8.4565 17.2658 8.44996 17.2737C8.44356 17.2813 8.43706 17.2889 8.43055 17.2964C8.42414 17.3039 8.41768 17.3113 8.41116 17.3186C8.40471 17.3259 8.3983 17.3332 8.39176 17.3404C8.38537 17.3474 8.37884 17.3543 8.37235 17.3612C8.36591 17.368 8.3595 17.3749 8.35296 17.3817C8.34655 17.3883 8.34006 17.3949 8.33355 17.4014C8.32712 17.4079 8.32068 17.4143 8.31416 17.4207C8.30773 17.4271 8.30127 17.4333 8.29475 17.4396C8.28833 17.4457 8.28184 17.4517 8.27535 17.4578C8.26891 17.4638 8.26248 17.4698 8.25596 17.4757C8.24955 17.4815 8.24304 17.4872 8.23655 17.493C8.23009 17.4987 8.22369 17.5044 8.21715 17.51C8.21076 17.5155 8.20422 17.5209 8.19776 17.5263C8.1913 17.5318 8.18488 17.5372 8.17835 17.5426C8.17194 17.5478 8.16543 17.553 8.15896 17.5581C8.1525 17.5633 8.14607 17.5685 8.13955 17.5735C8.13314 17.5785 8.12663 17.5834 8.12015 17.5883C8.1137 17.5932 8.10728 17.5981 8.10076 17.6029C8.09435 17.6077 8.08783 17.6123 8.08135 17.617C8.07489 17.6216 8.06848 17.6263 8.06196 17.6309C8.05555 17.6354 8.04904 17.6399 8.04256 17.6443C8.03609 17.6487 8.02968 17.6532 8.02315 17.6576C8.01674 17.6619 8.01024 17.6661 8.00376 17.6703C7.99729 17.6745 7.99087 17.6788 7.98435 17.683C7.97794 17.6871 7.97142 17.691 7.96496 17.695C7.9585 17.699 7.95207 17.7031 7.94555 17.707C7.93912 17.7109 7.93261 17.7147 7.92615 17.7185C7.91969 17.7223 7.91327 17.7261 7.90676 17.7299C7.90032 17.7336 7.89384 17.7372 7.88735 17.7408C7.88091 17.7444 7.87445 17.748 7.86796 17.7516C7.86151 17.7551 7.85505 17.7586 7.84856 17.762L7.82915 17.7722C7.82269 17.7755 7.81625 17.7789 7.80976 17.7822C7.80332 17.7854 7.79684 17.7886 7.79035 17.7918C7.78389 17.7949 7.77746 17.7982 7.77096 17.8013C7.76453 17.8044 7.75802 17.8073 7.75156 17.8103C7.74509 17.8133 7.73866 17.8164 7.73215 17.8193C7.72573 17.8222 7.71922 17.825 7.71276 17.8278L7.69335 17.8363L7.67396 17.8444C7.66751 17.8471 7.66102 17.8497 7.65455 17.8523C7.64809 17.8549 7.64164 17.8576 7.63515 17.8601C7.62873 17.8626 7.62223 17.865 7.61576 17.8674C7.60928 17.8699 7.60286 17.8724 7.59635 17.8748C7.58991 17.8771 7.58343 17.8794 7.57696 17.8817L7.55756 17.8885L7.53815 17.8951C7.53171 17.8972 7.52522 17.8993 7.51876 17.9013C7.51228 17.9034 7.50586 17.9056 7.49935 17.9076C7.49292 17.9096 7.48641 17.9114 7.47996 17.9134L7.46056 17.9191L7.44115 17.9246C7.43471 17.9264 7.42823 17.9281 7.42176 17.9298C7.41528 17.9315 7.40884 17.9333 7.40235 17.935C7.39592 17.9366 7.3894 17.9381 7.38296 17.9397C7.3765 17.9413 7.37004 17.9429 7.36356 17.9444L7.34415 17.9488L7.32476 17.953C7.31828 17.9544 7.31186 17.9559 7.30535 17.9572C7.29891 17.9586 7.29241 17.9597 7.28595 17.9609C7.2795 17.9622 7.27304 17.9634 7.26656 17.9646L7.24715 17.9681C7.24071 17.9692 7.23423 17.9702 7.22776 17.9713C7.22128 17.9723 7.21484 17.9735 7.20836 17.9745C7.20192 17.9755 7.19543 17.9763 7.18895 17.9772L7.16956 17.9799C7.1631 17.9808 7.15664 17.9817 7.15015 17.9825C7.14371 17.9833 7.13722 17.9839 7.13076 17.9847C7.12428 17.9854 7.11784 17.9862 7.11135 17.9869C7.1049 17.9876 7.09843 17.9881 7.09195 17.9887L7.07256 17.9904C7.06609 17.991 7.05964 17.9917 7.05315 17.9921C7.04671 17.9926 7.04022 17.9929 7.03376 17.9934L7.01436 17.9946L6.99495 17.9956C6.98851 17.9959 6.98202 17.9961 6.97556 17.9963C6.96908 17.9966 6.96263 17.9969 6.95615 17.9971C6.94971 17.9972 6.94322 17.9973 6.93676 17.9974L6.91736 17.9977C6.91137 17.9977 6.9054 17.9979 6.89937 17.9979H6.87856H6.85915H6.83976H6.82036H6.80095H6.78156H6.76215H6.74276H6.72336H6.70395H6.68456H6.66515H6.64576H6.62636H6.60695H6.58756H6.56817H6.54876H6.52936H6.50995H6.49056H6.47116H6.45176H6.43236H6.41295H6.39356H6.37416H6.35475H6.33536H6.31595H6.29656H6.27716H6.25775H6.23836H6.21895H6.19956H6.18016H6.16075H6.14136H6.12195H6.10256H6.08316H6.06375H6.04436H6.02495H6.00556H5.98616H5.96675H5.94736H5.92795H5.90856H5.88916H5.86975H5.85036H5.83097H5.81156H5.79216H5.77275H5.75336H5.73397H5.71456H5.69516H5.67575H5.65636H5.63697H5.61756H5.59816H5.57875H5.55936H5.53997H5.52056H5.50116H5.48175H5.46236H5.44296H5.42355H5.40416H5.38475H5.36536H5.34596H5.32655H5.30716H5.28777H5.26836H5.24896H5.22955H5.21016H5.19077H5.17136H5.15196H5.13255H5.11316H5.09377H5.07436H5.05496H5.03555H5.01616H4.99677H4.97736H4.95796H4.93855H4.91916H4.89977H4.88036H4.86096H4.84155H4.82216H4.80277H4.78336H4.76396H4.74457H4.72516H4.70577H4.68636H4.66696H4.64757H4.62816H4.60877H4.58936H4.56996H4.55057H4.53116H4.51176H4.49235H4.47296H4.45357H4.43416H4.41476H4.39535H4.37596H4.35657H4.33716H4.31776H4.29835H4.27896H4.25957H4.24016H4.22076H4.20135H4.18196H4.16257H4.14316H4.12376H4.10437H4.08496H4.06557H4.04616H4.02676H4.00737H3.98796H3.94629V13.7837C3.94629 13.7837 3.96062 13.7877 3.98796 13.7945L4.00737 13.7993L4.02676 13.804L4.04616 13.8086L4.06557 13.8132L4.08496 13.8177L4.10437 13.8221L4.12376 13.8265L4.14316 13.8307L4.16257 13.835L4.18196 13.8391L4.20135 13.8432L4.22076 13.8473L4.24016 13.8513L4.25957 13.8553L4.27896 13.8592L4.29835 13.863L4.31776 13.8668L4.33716 13.8706L4.35657 13.8743L4.37596 13.878L4.39535 13.8816L4.41476 13.8851L4.43416 13.8886L4.45357 13.8921L4.47296 13.8956L4.49235 13.8989L4.51176 13.9023L4.53116 13.9056L4.55057 13.9088L4.56996 13.912L4.58936 13.9152L4.60877 13.9183L4.62816 13.9214L4.64757 13.9244L4.66696 13.9274L4.68636 13.9303L4.70577 13.9332L4.72516 13.9361L4.74457 13.9389L4.76396 13.9417L4.78336 13.9444L4.80277 13.9471L4.82216 13.9498L4.84155 13.9524L4.86096 13.955L4.88036 13.9575L4.89977 13.96L4.91916 13.9624L4.93855 13.9648L4.95796 13.9672L4.97736 13.9695L4.99677 13.9718L5.01616 13.974L5.03555 13.9762L5.05496 13.9784L5.07436 13.9805L5.09377 13.9826L5.11316 13.9846L5.13255 13.9866L5.15196 13.9885L5.17136 13.9904L5.19077 13.9923L5.21016 13.9941L5.22955 13.9959L5.24896 13.9977L5.26836 13.9993L5.28777 14.001L5.30716 14.0026L5.32655 14.0042L5.34596 14.0057L5.36536 14.0072L5.38475 14.0087L5.40416 14.0101L5.42355 14.0114L5.44296 14.0128L5.46236 14.014L5.48175 14.0153L5.50116 14.0165L5.52056 14.0176L5.53997 14.0187L5.55936 14.0198L5.57875 14.0208L5.59816 14.0218L5.61756 14.0227L5.63697 14.0236L5.65636 14.0244L5.67575 14.0252L5.69516 14.026L5.71456 14.0267L5.73397 14.0274L5.75336 14.028L5.77275 14.0286L5.79216 14.0292L5.81156 14.0297L5.83097 14.0301L5.85036 14.0305L5.86975 14.0309L5.88916 14.0312L5.90856 14.0315L5.92795 14.0317L5.94736 14.0319L5.96675 14.032L5.98616 14.0321L6.00556 14.0321L6.02495 14.0321L6.04436 14.032L6.06375 14.0318L6.08316 14.0317L6.10256 14.0316L6.12195 14.0313L6.14136 14.0309L6.16075 14.0306L6.18016 14.0302L6.19956 14.0297L6.21895 14.0291L6.23836 14.0285L6.25775 14.0279L6.27716 14.0273L6.29656 14.0265L6.31595 14.0256L6.33536 14.0247L6.35475 14.0239L6.37416 14.0228L6.39356 14.0217L6.41295 14.0206L6.43236 14.0195L6.45176 14.0182L6.47116 14.0168L6.49056 14.0154L6.50995 14.014L6.52936 14.0125L6.54876 14.0108L6.56817 14.0092L6.58756 14.0075L6.60695 14.0057L6.62636 14.0037L6.64576 14.0018L6.66515 13.9998L6.68456 13.9977L6.70395 13.9954L6.72336 13.9931L6.74276 13.9909L6.76215 13.9884L6.78156 13.9858L6.80095 13.9832L6.82036 13.9806C6.8269 13.9797 6.83327 13.9786 6.83976 13.9777L6.85915 13.9748L6.87856 13.9719L6.89795 13.9688C6.90448 13.9678 6.91087 13.9667 6.91736 13.9656L6.93676 13.9624C6.94318 13.9613 6.94977 13.9602 6.95615 13.9591C6.96269 13.958 6.96905 13.9567 6.97556 13.9555L6.99495 13.9519L7.01436 13.9483L7.03376 13.9446C7.04028 13.9433 7.04668 13.9419 7.05315 13.9406L7.07256 13.9366L7.09195 13.9326C7.09851 13.9312 7.10486 13.9297 7.11135 13.9283L7.13076 13.9239C7.13718 13.9224 7.14377 13.9211 7.15015 13.9196C7.15671 13.918 7.16307 13.9164 7.16956 13.9149L7.18895 13.9101C7.1954 13.9085 7.20197 13.907 7.20836 13.9054C7.21489 13.9037 7.2213 13.902 7.22776 13.9003L7.24715 13.8952C7.25361 13.8935 7.26017 13.8918 7.26656 13.89C7.27308 13.8882 7.2795 13.8864 7.28595 13.8846L7.30535 13.879C7.31181 13.8771 7.31836 13.8753 7.32476 13.8734L7.34415 13.8675L7.36356 13.8614C7.37 13.8594 7.37658 13.8575 7.38296 13.8554L7.40235 13.849L7.42176 13.8424C7.4282 13.8403 7.43479 13.8381 7.44115 13.8359C7.44771 13.8336 7.45407 13.8313 7.46056 13.8289L7.47996 13.8219C7.48641 13.8195 7.49295 13.8172 7.49935 13.8148C7.50591 13.8123 7.51228 13.8098 7.51876 13.8072C7.52523 13.8047 7.53176 13.8022 7.53815 13.7997L7.55756 13.7918L7.57696 13.7838C7.5834 13.7811 7.58999 13.7784 7.59635 13.7757C7.60292 13.7728 7.60927 13.7699 7.61576 13.767L7.63515 13.7584L7.65455 13.7494C7.66107 13.7463 7.66751 13.7432 7.67396 13.7401C7.68042 13.737 7.68699 13.7339 7.69335 13.7308C7.69992 13.7275 7.70628 13.7242 7.71276 13.7209C7.71924 13.7176 7.72577 13.7143 7.73215 13.711C7.73871 13.7075 7.7451 13.704 7.75156 13.7006C7.75807 13.6971 7.76455 13.6935 7.77096 13.69C7.77748 13.6864 7.78394 13.6827 7.79035 13.6791C7.79689 13.6753 7.80333 13.6715 7.80976 13.6677C7.81625 13.6639 7.82276 13.6601 7.82915 13.6562C7.83571 13.6522 7.84212 13.6482 7.84856 13.6442C7.85505 13.6401 7.86158 13.6361 7.86796 13.632C7.87451 13.6278 7.88091 13.6234 7.88735 13.6191C7.89384 13.6148 7.90038 13.6105 7.90676 13.6061C7.91333 13.6016 7.91971 13.597 7.92615 13.5925C7.93265 13.5878 7.93919 13.5832 7.94555 13.5785C7.95212 13.5737 7.95853 13.5689 7.96496 13.564C7.97148 13.559 7.97797 13.5541 7.98435 13.5491C7.99089 13.5439 7.99735 13.5387 8.00376 13.5335C8.0103 13.5282 8.01676 13.5228 8.02315 13.5174C8.02968 13.5119 8.0362 13.5064 8.04256 13.5008C8.04915 13.4951 8.05553 13.4892 8.06196 13.4834C8.06847 13.4774 8.075 13.4715 8.08135 13.4655C8.08794 13.4593 8.09437 13.453 8.10076 13.4467C8.10732 13.4403 8.11378 13.4337 8.12015 13.4272C8.12668 13.4205 8.13322 13.4138 8.13955 13.4071C8.14615 13.4 8.15255 13.3928 8.15896 13.3856C8.16555 13.3783 8.17199 13.3708 8.17835 13.3634C8.18491 13.3557 8.19143 13.348 8.19776 13.3402C8.20433 13.332 8.21082 13.3239 8.21715 13.3157C8.22378 13.3071 8.23019 13.2985 8.23655 13.2898C8.24317 13.2807 8.24961 13.2716 8.25596 13.2624C8.26258 13.2528 8.26904 13.2432 8.27535 13.2335C8.28197 13.2233 8.28845 13.2131 8.29475 13.2027C8.30138 13.1918 8.30787 13.1809 8.31416 13.1698C8.32082 13.1581 8.32728 13.1463 8.33355 13.1344C8.34025 13.1216 8.34671 13.1088 8.35296 13.0959C8.35969 13.082 8.36613 13.068 8.37235 13.0539C8.3791 13.0386 8.38559 13.0232 8.39176 13.0076C8.39856 12.9904 8.40505 12.9731 8.41116 12.9557C8.41808 12.9359 8.42451 12.9159 8.43055 12.8957C8.4376 12.8721 8.44406 12.8483 8.44996 12.8242C8.45727 12.7944 8.46376 12.7642 8.46935 12.7337C8.47766 12.6883 8.48408 12.6422 8.48875 12.5954C8.49527 12.5303 8.49844 12.4639 8.49844 12.3965V10.0764H8.46935H8.44996H8.43055H8.41116H8.39176H8.37235H8.35296H8.33355H8.31416H8.29475H8.27535H8.25596H8.23655H8.21715H8.19776H8.17835H8.15896H8.13955H8.12015H8.10076H8.08135H8.06196H8.04256H8.02315H8.00376H7.98435H7.96496H7.94555H7.92615H7.90676H7.88735H7.86796H7.84856H7.82915H7.80976H7.79035H7.77096H7.75156H7.73215H7.71276H7.69335H7.67396H7.65455H7.63515H7.61576H7.59635H7.57696H7.55756H7.53815H7.51876H7.49935H7.47996H7.46056H7.44115H7.42176H7.40235H7.38296H7.36356H7.34415H7.32476H7.30535H7.28595H7.26656H7.24715H7.22776H7.20836H7.18895H7.16956H7.15015H7.13076H7.11135H7.09195H7.07256H7.05315H7.03376H7.01436H6.99495H6.97556H6.95615H6.93676H6.91736H6.89795H6.87856H6.85915H6.83976H6.82036H6.80095H6.78156L6.76685 12.3965C6.76685 12.4328 6.76526 12.4686 6.76215 12.5036C6.75819 12.5482 6.7517 12.5918 6.74276 12.6341C6.73723 12.6602 6.73076 12.6859 6.72336 12.7111C6.71747 12.7311 6.71102 12.7509 6.70395 12.7703C6.69793 12.7868 6.69144 12.8031 6.68456 12.8191C6.67842 12.8334 6.67196 12.8475 6.66515 12.8614C6.65895 12.874 6.65252 12.8865 6.64576 12.8988C6.63954 12.91 6.63303 12.9211 6.62636 12.9321C6.6201 12.9424 6.61364 12.9526 6.60695 12.9626C6.60067 12.972 6.5942 12.9813 6.58756 12.9905C6.58124 12.9992 6.57482 13.0078 6.56817 13.0163C6.56185 13.0244 6.55536 13.0323 6.54876 13.0401C6.54243 13.0476 6.53597 13.055 6.52936 13.0623C6.52302 13.0694 6.51656 13.0763 6.50995 13.0832C6.50359 13.0898 6.49715 13.0963 6.49056 13.1027C6.4842 13.1089 6.47774 13.115 6.47116 13.121C6.4648 13.1269 6.45831 13.1326 6.45176 13.1382C6.44539 13.1437 6.43892 13.1491 6.43236 13.1545C6.42598 13.1597 6.41949 13.1648 6.41295 13.1698C6.40657 13.1747 6.4001 13.1795 6.39356 13.1843C6.38716 13.1889 6.3807 13.1935 6.37416 13.198C6.36777 13.2024 6.36131 13.2067 6.35475 13.211C6.34836 13.2152 6.3419 13.2192 6.33536 13.2233C6.32897 13.2272 6.32249 13.2311 6.31595 13.2349C6.30956 13.2386 6.30308 13.2423 6.29656 13.2459C6.29016 13.2494 6.28369 13.2529 6.27716 13.2563C6.27075 13.2596 6.26429 13.2629 6.25775 13.2661C6.25134 13.2693 6.24488 13.2724 6.23836 13.2755C6.23193 13.2785 6.22549 13.2815 6.21895 13.2844C6.21252 13.2872 6.20608 13.2901 6.19956 13.2928C6.19316 13.2955 6.18667 13.2981 6.18016 13.3007C6.17375 13.3032 6.16726 13.3057 6.16075 13.3081C6.15433 13.3105 6.14788 13.3129 6.14136 13.3152C6.13493 13.3174 6.12847 13.3197 6.12195 13.3218C6.11554 13.324 6.10906 13.3261 6.10256 13.3281C6.09615 13.3301 6.08965 13.332 6.08316 13.3339C6.07674 13.3358 6.07026 13.3377 6.06375 13.3394C6.05731 13.3412 6.05087 13.343 6.04436 13.3446C6.03793 13.3463 6.03146 13.3479 6.02495 13.3494C6.01854 13.3509 6.01206 13.3524 6.00556 13.3539C5.99913 13.3553 5.99267 13.3567 5.98616 13.358C5.97972 13.3594 5.97328 13.3607 5.96675 13.3619C5.96033 13.3631 5.95385 13.3642 5.94736 13.3654C5.94092 13.3665 5.93446 13.3676 5.92795 13.3687L5.90856 13.3716C5.90213 13.3725 5.89565 13.3734 5.88916 13.3742C5.88272 13.3751 5.87628 13.3759 5.86975 13.3767L5.85036 13.3788C5.84393 13.3795 5.83746 13.38 5.83097 13.3806C5.82451 13.3812 5.81806 13.3818 5.81156 13.3823C5.80513 13.3828 5.79865 13.3832 5.79216 13.3836C5.78572 13.384 5.77924 13.3844 5.77275 13.3847C5.76629 13.3851 5.75987 13.3854 5.75336 13.3857C5.74693 13.3859 5.74044 13.3861 5.73397 13.3863L5.71456 13.3867C5.70813 13.3868 5.70165 13.3868 5.69516 13.3869L5.67575 13.3869L5.65636 13.3868L5.63697 13.3865L5.61756 13.3861L5.59816 13.3856L5.57875 13.385L5.55936 13.3842L5.53997 13.3833L5.52056 13.3823L5.50116 13.3812L5.48175 13.3799L5.46236 13.3786L5.44296 13.3771L5.42355 13.3754L5.40416 13.3737L5.38475 13.3719L5.36536 13.3699L5.34596 13.3678L5.32655 13.3656L5.30716 13.3633L5.28777 13.3608L5.26836 13.3583L5.24896 13.3556L5.22955 13.3528L5.21016 13.3499L5.19077 13.3469L5.17136 13.3438L5.15196 13.3406L5.13255 13.3372L5.11316 13.3337L5.09377 13.3302L5.07436 13.3265L5.05496 13.3227L5.03555 13.3188L5.01616 13.3148L4.99677 13.3107L4.97736 13.3064L4.95796 13.3021L4.93855 13.2976L4.91916 13.2931L4.89977 13.2884L4.88036 13.2836L4.86096 13.2788L4.84155 13.2738L4.82216 13.2687L4.80277 13.2635L4.78336 13.2582L4.76396 13.2528L4.74457 13.2473L4.72516 13.2417L4.70577 13.236L4.68636 13.2302L4.66696 13.2243L4.64757 13.2183L4.62816 13.2122L4.60877 13.206L4.58936 13.1997L4.56996 13.1933L4.55057 13.1868L4.53116 13.1802L4.51176 13.1735L4.49235 13.1667L4.47296 13.1598L4.45357 13.1529L4.43416 13.1458L4.41476 13.1386L4.39535 13.1314L4.37596 13.124L4.35657 13.1166L4.33716 13.109L4.31776 13.1014L4.29835 13.0937L4.27896 13.0859L4.25957 13.078L4.24016 13.07L4.22076 13.0619L4.20135 13.0537L4.18196 13.0455L4.16257 13.0371L4.14316 13.0287L4.12376 13.0202L4.10437 13.0116L4.08496 13.0029L4.06557 12.9941L4.04616 12.9852L4.02676 12.9763L4.00737 12.9673L3.98796 12.9581C3.97406 12.9516 3.96017 12.945 3.94629 12.9383Z" fill="#006CB9"/>
<path fill-rule="evenodd" clip-rule="evenodd" d="M9.55826 10.5833C9.54411 10.5947 9.5302 10.6061 9.5166 10.6177V7.9998C9.5166 7.86058 9.53099 7.72469 9.55826 7.59347C9.56412 7.5653 9.57061 7.53738 9.57765 7.50966C9.58369 7.48587 9.59018 7.46228 9.59706 7.43884C9.6032 7.41797 9.60967 7.39723 9.61647 7.37665C9.62267 7.35783 9.62911 7.33912 9.63586 7.32056C9.64211 7.30337 9.64856 7.28625 9.65527 7.26928C9.66155 7.25341 9.668 7.23762 9.67467 7.22194C9.68096 7.20716 9.68742 7.19248 9.69406 7.17787C9.70036 7.164 9.70687 7.15023 9.71347 7.13654C9.71978 7.12345 9.72627 7.11049 9.73286 7.09757C9.73919 7.08515 9.74568 7.07284 9.75227 7.06057C9.75862 7.04875 9.76509 7.037 9.77167 7.02533C9.77803 7.01402 9.78449 7.00276 9.79108 6.99159C9.79745 6.98074 9.80388 6.96995 9.81047 6.95923C9.81683 6.94888 9.82331 6.93859 9.82986 6.92837C9.83624 6.91842 9.84273 6.90858 9.84927 6.89876C9.85567 6.88915 9.86211 6.8796 9.86867 6.87011C9.87509 6.8608 9.8815 6.85149 9.88808 6.84231C9.89444 6.83341 9.90096 6.82466 9.90747 6.8159C9.91388 6.80726 9.92034 6.79867 9.92688 6.79014C9.93331 6.78174 9.93972 6.77333 9.94627 6.76504C9.95264 6.757 9.95919 6.74906 9.96568 6.74111C9.97209 6.73326 9.97855 6.72544 9.98508 6.71769C9.9915 6.71005 9.99795 6.70243 10.0045 6.6949C10.0109 6.68754 10.0174 6.68028 10.0239 6.67301C10.0303 6.66582 10.0367 6.65859 10.0433 6.65147C10.0497 6.64451 10.0562 6.63763 10.0627 6.63077C10.0691 6.62398 10.0756 6.61725 10.0821 6.61055C10.0885 6.60394 10.0949 6.59733 10.1015 6.59081C10.1079 6.58441 10.1144 6.57809 10.1209 6.57177C10.1273 6.56548 10.1337 6.55915 10.1403 6.55294C10.1467 6.54688 10.1532 6.54096 10.1597 6.53498C10.1661 6.52901 10.1725 6.52303 10.1791 6.51716C10.1855 6.5114 10.192 6.50574 10.1985 6.50006C10.2049 6.4944 10.2114 6.48875 10.2179 6.48318C10.2243 6.47769 10.2308 6.4723 10.2373 6.4669C10.2437 6.46154 10.2502 6.45618 10.2567 6.45088C10.2631 6.44567 10.2696 6.4405 10.2761 6.43537C10.2825 6.43026 10.289 6.42519 10.2955 6.42017C10.3019 6.41521 10.3084 6.4103 10.3149 6.40541C10.3213 6.40056 10.3278 6.39573 10.3343 6.39096C10.3407 6.38623 10.3472 6.38155 10.3537 6.3769C10.3601 6.37229 10.3666 6.36768 10.3731 6.36314C10.3795 6.35865 10.386 6.35422 10.3925 6.34978C10.3989 6.34539 10.4054 6.341 10.4119 6.33668C10.4183 6.33241 10.4248 6.32821 10.4313 6.324C10.4377 6.31981 10.4442 6.31562 10.4507 6.3115C10.4571 6.30744 10.4636 6.30347 10.4701 6.29947C10.4766 6.29549 10.483 6.29146 10.4895 6.28756C10.4959 6.28369 10.5024 6.27994 10.5089 6.27615C10.5154 6.27236 10.5218 6.26849 10.5283 6.26478C10.5347 6.26111 10.5412 6.2576 10.5477 6.254C10.5542 6.2504 10.5606 6.24677 10.5671 6.24325C10.5735 6.23976 10.58 6.2364 10.5865 6.23298C10.5929 6.22957 10.5994 6.22615 10.6059 6.2228L10.6253 6.213L10.6447 6.20341C10.6511 6.20028 10.6576 6.19711 10.6641 6.19404C10.6705 6.19099 10.677 6.18803 10.6835 6.18503C10.69 6.18206 10.6964 6.17899 10.7029 6.17608C10.7093 6.17318 10.7158 6.17046 10.7223 6.16765C10.7288 6.16483 10.7352 6.16197 10.7417 6.15922C10.7481 6.1565 10.7546 6.15386 10.7611 6.1512L10.7805 6.14333C10.787 6.14076 10.7934 6.13818 10.7999 6.13567C10.8063 6.13317 10.8128 6.13077 10.8193 6.12834C10.8258 6.12591 10.8322 6.1234 10.8387 6.12103C10.8451 6.1187 10.8517 6.11652 10.8581 6.11425C10.8646 6.11198 10.871 6.10967 10.8775 6.10747C10.8839 6.10526 10.8904 6.10315 10.8969 6.10102L10.9163 6.09476C10.9228 6.09272 10.9292 6.09062 10.9357 6.08862C10.9421 6.08665 10.9487 6.0848 10.9551 6.0829C10.9616 6.08098 10.968 6.07901 10.9745 6.07715C10.981 6.07531 10.9874 6.0736 10.9939 6.07183L11.0133 6.06659C11.0198 6.0649 11.0262 6.06317 11.0327 6.06154C11.0392 6.05992 11.0457 6.0584 11.0521 6.05684C11.0586 6.05527 11.065 6.05364 11.0715 6.05213C11.078 6.05065 11.0845 6.04925 11.0909 6.04783L11.1103 6.04364C11.1168 6.04228 11.1232 6.04087 11.1297 6.03958C11.1362 6.03828 11.1427 6.03711 11.1491 6.03588C11.1556 6.03465 11.162 6.03335 11.1685 6.03219L11.1879 6.02886L11.2073 6.02567C11.2138 6.02463 11.2202 6.02353 11.2267 6.02256C11.2332 6.02158 11.2397 6.02076 11.2461 6.01985C11.2526 6.01896 11.259 6.01801 11.2655 6.01716L11.2849 6.01475L11.3043 6.01254C11.3108 6.01182 11.3172 6.01099 11.3237 6.01033C11.3302 6.00968 11.3367 6.0092 11.3431 6.00861L11.3625 6.00691C11.369 6.00637 11.3755 6.00584 11.3819 6.00537C11.3884 6.00491 11.3949 6.00454 11.4013 6.00414C11.4078 6.00374 11.4142 6.00328 11.4207 6.00293C11.4272 6.00258 11.4337 6.00234 11.4401 6.00205L11.4595 6.00131C11.466 6.00109 11.4725 6.00075 11.4789 6.00059C11.4854 6.00043 11.4919 6.00045 11.4983 6.00035C11.5048 6.00026 11.5113 6.00014 11.5178 6.00011L11.5263 6H11.5371H11.5566H11.5759H11.5953H11.6148H11.6341H11.6536H11.6729H11.6924H11.7118H11.7312H11.7506H11.7699H11.7894H11.8088H11.8282H11.8476H11.867H11.8864H11.9058H11.9252H11.9446H11.964H11.9834H12.0028H12.0222H12.0416H12.061H12.0804H12.0998H12.1192H12.1386H12.158H12.1774H12.1968H12.2162H12.2356H12.255H12.2744H12.2938H12.3132H12.3326H12.352H12.3714H12.3908H12.4102H12.4296H12.449H12.4684H12.4878H12.5072H12.5266H12.546H12.5654H12.5848H12.6042H12.6236H12.643H12.6624H12.6818H12.7012H12.7206H12.74H12.7594H12.7788H12.7982H12.8176H12.837H12.8564H12.8758H12.8952H12.9146H12.934H12.9534H12.9728H12.9922H13.0116H13.031H13.0504H13.0698H13.0892H13.1086H13.128H13.1474H13.1668H13.1862H13.2056H13.225H13.2444H13.2638H13.2832H13.3026H13.322H13.3414H13.3608H13.3802H13.3996H13.419H13.4384H13.4578H13.4772H13.4966H13.5161H13.5354H13.5549H13.5742H13.5936H13.6131H13.6324H13.6519H13.6712H13.6907H13.7101H13.7295H13.7489H13.7682H13.7877H13.8071H13.8265H13.8459H13.8653H13.8847H13.9041H13.9235H13.9429H13.9623H13.9817H14.0011H14.0205H14.0399H14.0593H14.0787H14.0981H14.1175H14.1369H14.1563H14.1757H14.1951H14.2145H14.2339H14.2533H14.2727H14.2921H14.3115H14.3309H14.3503H14.3697H14.3891H14.4085H14.4279H14.4473H14.4667H14.4831V15.9983C14.4831 16.0852 14.4775 16.1708 14.4667 16.2548C14.4615 16.2953 14.4549 16.3353 14.4473 16.375C14.4415 16.4052 14.435 16.4351 14.4279 16.4648C14.4219 16.4898 14.4154 16.5147 14.4085 16.5393C14.4024 16.5609 14.3959 16.5824 14.3891 16.6037C14.3829 16.623 14.3764 16.6421 14.3697 16.6611C14.3635 16.6787 14.357 16.6962 14.3503 16.7136C14.344 16.7299 14.3376 16.746 14.3309 16.762C14.3246 16.7771 14.3181 16.7921 14.3115 16.807C14.3052 16.8212 14.2987 16.8352 14.2921 16.8492C14.2858 16.8625 14.2793 16.8758 14.2727 16.8889C14.2663 16.9016 14.2599 16.9141 14.2533 16.9266C14.2469 16.9386 14.2405 16.9506 14.2339 16.9625C14.2275 16.9739 14.2211 16.9854 14.2145 16.9967C14.2081 17.0076 14.2016 17.0185 14.1951 17.0293C14.1887 17.0398 14.1822 17.0501 14.1757 17.0605C14.1693 17.0706 14.1628 17.0806 14.1563 17.0905C14.1499 17.1003 14.1435 17.11 14.1369 17.1197C14.1305 17.129 14.124 17.1382 14.1175 17.1474C14.1111 17.1564 14.1046 17.1654 14.0981 17.1743C14.0917 17.183 14.0852 17.1918 14.0787 17.2004C14.0723 17.2088 14.0658 17.2172 14.0593 17.2255C14.0529 17.2337 14.0464 17.2418 14.0399 17.2498C14.0334 17.2578 14.027 17.2657 14.0205 17.2735C14.0141 17.2812 14.0076 17.2888 14.0011 17.2964C13.9947 17.3038 13.9882 17.3112 13.9817 17.3185C13.9752 17.3258 13.9688 17.3331 13.9623 17.3403C13.9559 17.3473 13.9493 17.3541 13.9429 17.3611C13.9364 17.3679 13.93 17.3748 13.9235 17.3816C13.9171 17.3883 13.9106 17.3948 13.9041 17.4013C13.8976 17.4078 13.8912 17.4142 13.8847 17.4206C13.8782 17.4269 13.8718 17.4332 13.8653 17.4395C13.8589 17.4456 13.8524 17.4516 13.8459 17.4577C13.8394 17.4637 13.833 17.4697 13.8265 17.4756C13.8201 17.4814 13.8135 17.4871 13.8071 17.4929C13.8006 17.4986 13.7942 17.5043 13.7877 17.51C13.7812 17.5155 13.7747 17.5208 13.7682 17.5263C13.7618 17.5317 13.7554 17.5372 13.7489 17.5425C13.7424 17.5477 13.7359 17.5528 13.7295 17.558C13.723 17.5632 13.7166 17.5684 13.7101 17.5734C13.7036 17.5784 13.6971 17.5833 13.6907 17.5882C13.6842 17.5931 13.6778 17.598 13.6712 17.6028C13.6648 17.6076 13.6583 17.6122 13.6519 17.6169C13.6454 17.6216 13.639 17.6263 13.6324 17.6309C13.626 17.6354 13.6195 17.6398 13.6131 17.6442C13.6066 17.6487 13.6002 17.6532 13.5936 17.6575C13.5872 17.6618 13.5807 17.666 13.5742 17.6702C13.5678 17.6744 13.5614 17.6787 13.5549 17.6829C13.5484 17.687 13.5419 17.6909 13.5354 17.6949C13.529 17.6989 13.5226 17.703 13.5161 17.7069C13.5096 17.7108 13.5031 17.7146 13.4966 17.7184C13.4902 17.7222 13.4837 17.7261 13.4772 17.7298C13.4708 17.7335 13.4643 17.7371 13.4578 17.7408L13.4384 17.7515L13.419 17.762L13.3996 17.7721C13.3932 17.7755 13.3867 17.7788 13.3802 17.7821C13.3738 17.7854 13.3673 17.7885 13.3608 17.7917C13.3544 17.7949 13.348 17.7981 13.3414 17.8012C13.335 17.8043 13.3285 17.8072 13.322 17.8102C13.3156 17.8132 13.3091 17.8163 13.3026 17.8192C13.2962 17.8221 13.2897 17.8249 13.2832 17.8278L13.2638 17.8362L13.2444 17.8444L13.225 17.8523C13.2186 17.8549 13.2121 17.8575 13.2056 17.8601C13.1992 17.8626 13.1927 17.8649 13.1862 17.8674C13.1798 17.8698 13.1733 17.8723 13.1668 17.8747C13.1604 17.8771 13.1539 17.8793 13.1474 17.8816L13.128 17.8884L13.1086 17.895C13.1022 17.8972 13.0957 17.8992 13.0892 17.9013C13.0827 17.9034 13.0763 17.9055 13.0698 17.9075C13.0634 17.9095 13.0569 17.9114 13.0504 17.9133L13.031 17.919L13.0116 17.9245C13.0052 17.9263 12.9987 17.928 12.9922 17.9297C12.9857 17.9315 12.9793 17.9333 12.9728 17.935C12.9664 17.9366 12.9599 17.9381 12.9534 17.9397C12.947 17.9412 12.9405 17.9428 12.934 17.9444L12.9146 17.9488L12.8952 17.953C12.8887 17.9544 12.8823 17.9559 12.8758 17.9572C12.8694 17.9585 12.8629 17.9597 12.8564 17.9609L12.837 17.9646L12.8176 17.9681C12.8112 17.9692 12.8047 17.9702 12.7982 17.9713C12.7917 17.9723 12.7853 17.9734 12.7788 17.9744C12.7724 17.9754 12.7659 17.9763 12.7594 17.9772L12.74 17.9799C12.7335 17.9808 12.7271 17.9817 12.7206 17.9825C12.7142 17.9833 12.7077 17.9839 12.7012 17.9847C12.6947 17.9854 12.6883 17.9862 12.6818 17.9869C12.6754 17.9875 12.6689 17.9881 12.6624 17.9887L12.643 17.9904C12.6365 17.991 12.6301 17.9916 12.6236 17.9921C12.6172 17.9926 12.6107 17.9929 12.6042 17.9933L12.5848 17.9946L12.5654 17.9956C12.559 17.9959 12.5525 17.9961 12.546 17.9963C12.5395 17.9966 12.5331 17.9969 12.5266 17.9971C12.5201 17.9972 12.5137 17.9973 12.5072 17.9974L12.4878 17.9977C12.4817 17.9977 12.4757 17.9979 12.4697 17.9979H12.4684H12.449H12.4296H12.4102H12.3908H12.3714H12.352H12.3326H12.3132H12.2938H12.2744H12.255H12.2356H12.2162H12.1968H12.1774H12.158H12.1386H12.1192H12.0998H12.0804H12.061H12.0416H12.0222H12.0028H11.9834H11.964H11.9446H11.9252H11.9058H11.8864H11.867H11.8476H11.8282H11.8088H11.7894H11.7699H11.7506H11.7312H11.7118H11.6924H11.6729H11.6536H11.6341H11.6148H11.5953H11.5759H11.5566H11.5371H11.5178H11.4983H11.4789H11.4595H11.4401H11.4207H11.4013H11.3819H11.3625H11.3431H11.3237H11.3043H11.2849H11.2655H11.2461H11.2267H11.2073H11.1879H11.1685H11.1491H11.1297H11.1103H11.0909H11.0715H11.0521H11.0327H11.0133H10.9939H10.9745H10.9551H10.9357H10.9163H10.8969H10.8775H10.8581H10.8387H10.8193H10.7999H10.7805H10.7611H10.7417H10.7223H10.7029H10.6835H10.6641H10.6447H10.6253H10.6059H10.5865H10.5671H10.5477H10.5283H10.5089H10.4895H10.4701H10.4507H10.4313H10.4119H10.3925H10.3731H10.3537H10.3343H10.3149H10.2955H10.2761H10.2567H10.2373H10.2179H10.1985H10.1791H10.1597H10.1403H10.1209H10.1015H10.0821H10.0627H10.0433H10.0239H10.0045H9.98508H9.96568H9.94627H9.92688H9.90747H9.88808H9.86867H9.84927H9.82986H9.81047H9.79108H9.77167H9.75227H9.73286H9.71347H9.69406H9.67467H9.65527H9.63586H9.61647H9.59706H9.57765H9.55826H9.5166V13.381C9.5302 13.3925 9.54411 13.404 9.55826 13.4153C9.56467 13.4205 9.57114 13.4256 9.57765 13.4307C9.58408 13.4357 9.59054 13.4407 9.59706 13.4457C9.6035 13.4506 9.60993 13.4555 9.61647 13.4604C9.62286 13.4651 9.62937 13.4698 9.63586 13.4745C9.64227 13.4791 9.64876 13.4838 9.65527 13.4883C9.6617 13.4929 9.66814 13.4974 9.67467 13.5019L9.69406 13.5151C9.70047 13.5194 9.70696 13.5237 9.71347 13.5279L9.73286 13.5405C9.73929 13.5446 9.74575 13.5487 9.75227 13.5528C9.75867 13.5568 9.76517 13.5608 9.77167 13.5647L9.79108 13.5765C9.79752 13.5803 9.80396 13.5841 9.81047 13.5879C9.81688 13.5917 9.82337 13.5954 9.82986 13.5991L9.84927 13.61L9.86867 13.6207L9.88808 13.6311C9.89452 13.6345 9.90095 13.638 9.90747 13.6414C9.91388 13.6447 9.92039 13.648 9.92688 13.6513L9.94627 13.6611L9.96568 13.6707L9.98508 13.68C9.99154 13.6831 9.99796 13.6862 10.0045 13.6892L10.0239 13.6981L10.0433 13.7069L10.0627 13.7154L10.0821 13.7238L10.1015 13.7321L10.1209 13.7401L10.1403 13.748L10.1597 13.7557L10.1791 13.7633L10.1985 13.7706C10.2049 13.7731 10.2114 13.7755 10.2179 13.7779L10.2373 13.7849C10.2437 13.7873 10.2502 13.7897 10.2567 13.792C10.2631 13.7942 10.2696 13.7964 10.2761 13.7987L10.2955 13.8054L10.3149 13.8118C10.3213 13.814 10.3278 13.8162 10.3343 13.8183C10.3407 13.8204 10.3472 13.8224 10.3537 13.8245L10.3731 13.8306L10.3925 13.8365L10.4119 13.8424L10.4313 13.8481L10.4507 13.8538L10.4701 13.8592L10.4895 13.8646L10.5089 13.8699L10.5283 13.875L10.5477 13.8801L10.5671 13.885L10.5865 13.8898L10.6059 13.8945L10.6253 13.8991L10.6447 13.9036L10.6641 13.908L10.6835 13.9123L10.7029 13.9165L10.7223 13.9206L10.7417 13.9246L10.7611 13.9286L10.7805 13.9324L10.7999 13.9361L10.8193 13.9398L10.8387 13.9433L10.8581 13.9468L10.8775 13.9502L10.8969 13.9535L10.9163 13.9567L10.9357 13.9599L10.9551 13.963L10.9745 13.9659L10.9939 13.9688L11.0133 13.9717L11.0327 13.9744L11.0521 13.9771L11.0715 13.9797L11.0909 13.9822L11.1103 13.9847L11.1297 13.987L11.1491 13.9894L11.1685 13.9916L11.1879 13.9937L11.2073 13.9959L11.2267 13.9979L11.2461 13.9999L11.2655 14.0018L11.2849 14.0036L11.3043 14.0054L11.3237 14.0071L11.3431 14.0087L11.3625 14.0104L11.3819 14.0119L11.4013 14.0133L11.4207 14.0148L11.4401 14.0161L11.4595 14.0174L11.4789 14.0187L11.4983 14.0198L11.5178 14.0209L11.5371 14.022L11.5566 14.0229L11.5759 14.0239L11.5953 14.0248L11.6148 14.0256L11.6341 14.0264L11.6536 14.0272L11.6729 14.0278L11.6924 14.0285L11.7118 14.0291L11.7312 14.0296L11.7506 14.0301L11.7699 14.0305L11.7894 14.0309L11.8088 14.0312L11.8282 14.0315L11.8476 14.0317L11.867 14.0319L11.8864 14.0321L11.9058 14.0322L11.9252 14.0322L11.9446 14.0322L11.964 14.0322L11.9834 14.0321L12.0028 14.0319L12.0222 14.0318L12.0416 14.0315L12.061 14.0313L12.0804 14.031L12.0998 14.0306L12.1192 14.0302L12.1386 14.0298L12.158 14.0293L12.1774 14.0288L12.1968 14.0283L12.2162 14.0277L12.2356 14.027L12.255 14.0264L12.2744 14.0257L12.2938 14.0249L12.3132 14.0241L12.3326 14.0233L12.3421 14.0229L12.352 14.0224L12.3714 14.0215L12.3908 14.0205L12.4102 14.0194L12.4296 14.0182L12.449 14.0171L12.4684 14.0158L12.4878 14.0144L12.5072 14.013L12.5266 14.0116L12.546 14.01L12.5654 14.0085L12.5848 14.0068L12.6042 14.0051L12.6236 14.0034L12.643 14.0016L12.6624 13.9997L12.6818 13.9978L12.7012 13.9959L12.7206 13.9938L12.74 13.9917L12.7594 13.9896L12.7788 13.9874L12.7982 13.9852L12.8176 13.9829L12.837 13.9806L12.8564 13.9783L12.8758 13.9758L12.8952 13.9734L12.9146 13.9709L12.934 13.9683L12.9534 13.9657L12.9728 13.9631L12.9922 13.9604L13.0116 13.9577L13.031 13.9549L13.0504 13.9521L13.0698 13.9492L13.0892 13.9463L13.1086 13.9434L13.128 13.9404L13.1474 13.9374L13.1668 13.9343L13.1862 13.9312L13.2056 13.9281L13.225 13.9249L13.2444 13.9217L13.2638 13.9184L13.2832 13.9151L13.3026 13.9118L13.322 13.9084L13.3414 13.905L13.3608 13.9015L13.3802 13.898L13.3996 13.8945L13.419 13.891L13.4384 13.8873L13.4578 13.8837L13.4772 13.88L13.4966 13.8763L13.5161 13.8725L13.5354 13.8687L13.5549 13.8649L13.5742 13.8611L13.5936 13.8571L13.6131 13.8532L13.6324 13.8492L13.6519 13.8452L13.6712 13.8411L13.6907 13.837L13.7101 13.8329L13.7295 13.8287L13.7489 13.8245L13.7682 13.8202L13.7877 13.8159L13.8071 13.8115L13.8265 13.8071L13.8459 13.8026L13.8653 13.7981L13.8847 13.7935L13.9041 13.7889L13.9234 13.7842V12.9383L13.9041 12.9478L13.8847 12.9573L13.8653 12.9668L13.8459 12.9761L13.8265 12.9854L13.8071 12.9946L13.7877 13.0036L13.7682 13.0126L13.7489 13.0215L13.7295 13.0303L13.7101 13.039L13.6907 13.0476L13.6712 13.056L13.6519 13.0644L13.6324 13.0727L13.6131 13.0809L13.5936 13.089L13.5742 13.097L13.5549 13.1049L13.5354 13.1127L13.5161 13.1203L13.4966 13.1279L13.4772 13.1354L13.4578 13.1427L13.4384 13.1499L13.419 13.1571L13.3996 13.1641L13.3802 13.171L13.3608 13.1778L13.3414 13.1845L13.322 13.1911L13.3026 13.1976L13.2832 13.204L13.2638 13.2102L13.2444 13.2164L13.225 13.2224L13.2056 13.2284L13.1862 13.2342L13.1668 13.2399L13.1474 13.2455L13.128 13.251L13.1086 13.2564L13.0892 13.2617L13.0698 13.2668L13.0504 13.2719L13.031 13.2768L13.0116 13.2817L12.9922 13.2864L12.9728 13.291L12.9534 13.2955L12.934 13.2999L12.9146 13.3042L12.8952 13.3084L12.8758 13.3125L12.8564 13.3164L12.837 13.3203L12.8176 13.3241L12.7982 13.3277L12.7788 13.3312L12.7594 13.3347L12.74 13.338L12.7206 13.3412L12.7012 13.3443L12.6818 13.3474L12.6624 13.3503L12.643 13.3531L12.6236 13.3558L12.6042 13.3584L12.5848 13.3609L12.5654 13.3633L12.546 13.3656L12.5266 13.3677L12.5072 13.3698L12.4878 13.3718L12.4684 13.3737L12.449 13.3755L12.4296 13.3772L12.4102 13.3787L12.3984 13.3797L12.3908 13.3802L12.3714 13.3815L12.352 13.3828L12.3326 13.3838L12.3132 13.3848L12.2938 13.3857L12.2744 13.3863L12.255 13.3869L12.2356 13.3873L12.2162 13.3876L12.1968 13.3879C12.1903 13.3879 12.1839 13.3878 12.1774 13.3878L12.158 13.3877L12.1386 13.3874L12.1192 13.387L12.0998 13.3865C12.0933 13.3863 12.0868 13.386 12.0804 13.3857C12.0739 13.3855 12.0674 13.3853 12.061 13.385L12.0416 13.3839L12.0222 13.3827L12.0028 13.3814L11.9834 13.3799C11.9769 13.3793 11.9704 13.3789 11.964 13.3783C11.9575 13.3777 11.951 13.377 11.9446 13.3764L11.9252 13.3744L11.9058 13.3722L11.8864 13.3699L11.867 13.3673L11.8476 13.3646C11.8411 13.3636 11.8346 13.3627 11.8282 13.3617C11.8217 13.3607 11.8152 13.3596 11.8088 13.3585C11.8023 13.3575 11.7958 13.3565 11.7894 13.3553C11.7828 13.3542 11.7764 13.3529 11.7699 13.3517C11.7635 13.3505 11.757 13.3494 11.7506 13.3481C11.744 13.3468 11.7376 13.3454 11.7312 13.3441C11.7247 13.3427 11.7182 13.3414 11.7118 13.34C11.7052 13.3386 11.6988 13.3371 11.6924 13.3356L11.6729 13.3311C11.6664 13.3295 11.66 13.3278 11.6536 13.3262C11.6471 13.3246 11.6406 13.3229 11.6341 13.3212C11.6276 13.3195 11.6212 13.3177 11.6148 13.3159C11.6083 13.3141 11.6018 13.3123 11.5953 13.3104C11.5888 13.3085 11.5824 13.3065 11.5759 13.3046C11.5695 13.3026 11.563 13.3006 11.5566 13.2985C11.55 13.2965 11.5436 13.2943 11.5371 13.2922C11.5307 13.29 11.5242 13.2879 11.5178 13.2856C11.5112 13.2834 11.5048 13.281 11.4983 13.2787C11.4919 13.2763 11.4854 13.274 11.4789 13.2716C11.4724 13.2691 11.466 13.2666 11.4595 13.264C11.4531 13.2615 11.4466 13.259 11.4401 13.2564C11.4336 13.2537 11.4272 13.2509 11.4207 13.2482C11.4142 13.2454 11.4077 13.2427 11.4013 13.2398C11.3948 13.2369 11.3884 13.2339 11.3819 13.2309C11.3754 13.2279 11.3689 13.2249 11.3625 13.2218C11.356 13.2187 11.3496 13.2155 11.3431 13.2123C11.3366 13.209 11.3302 13.2057 11.3237 13.2024C11.3172 13.199 11.3107 13.1957 11.3043 13.1922C11.2978 13.1887 11.2914 13.185 11.2849 13.1814C11.2784 13.1777 11.2719 13.1741 11.2655 13.1703C11.259 13.1665 11.2526 13.1626 11.2461 13.1587C11.2396 13.1547 11.2332 13.1507 11.2267 13.1466C11.2202 13.1425 11.2137 13.1384 11.2073 13.1342C11.2008 13.1299 11.1944 13.1254 11.1879 13.121C11.1814 13.1165 11.1749 13.1119 11.1685 13.1073C11.162 13.1027 11.1555 13.098 11.1491 13.0933C11.1426 13.0884 11.1361 13.0834 11.1297 13.0784C11.1232 13.0733 11.1167 13.0682 11.1103 13.063C11.1038 13.0577 11.0973 13.0524 11.0909 13.047C11.0844 13.0414 11.0779 13.0357 11.0715 13.03C11.065 13.0242 11.0585 13.0183 11.0521 13.0124C11.0456 13.0063 11.0391 13.0002 11.0327 12.994C11.0262 12.9877 11.0197 12.9814 11.0133 12.9749C11.0067 12.9682 11.0003 12.9614 10.9939 12.9545C10.9873 12.9475 10.9809 12.9404 10.9745 12.9332C10.9679 12.9258 10.9615 12.9183 10.9551 12.9108C10.9486 12.903 10.9421 12.8952 10.9357 12.8872C10.9291 12.879 10.9227 12.8707 10.9163 12.8622C10.9097 12.8535 10.9032 12.8448 10.8969 12.8359C10.8903 12.8266 10.8838 12.8172 10.8775 12.8077C10.8709 12.7978 10.8644 12.7878 10.8581 12.7777C10.8515 12.7671 10.845 12.7563 10.8387 12.7455C10.832 12.734 10.8256 12.7224 10.8193 12.7107C10.8126 12.6982 10.8062 12.6856 10.7999 12.6729C10.7932 12.6593 10.7867 12.6456 10.7805 12.6317C10.7738 12.6167 10.7673 12.6016 10.7611 12.5863C10.7543 12.5693 10.7479 12.552 10.7417 12.5345C10.7349 12.5152 10.7284 12.4955 10.7223 12.4756C10.7153 12.4524 10.7088 12.4289 10.7029 12.405C10.6956 12.3752 10.6891 12.3448 10.6835 12.3138C10.6751 12.2679 10.6686 12.2207 10.6641 12.1722C10.6589 12.1163 10.6562 12.0586 10.6562 11.9993C10.6562 11.9399 10.6589 11.8822 10.6641 11.8262C10.6686 11.7777 10.6751 11.7305 10.6835 11.6846C10.6891 11.6536 10.6956 11.6231 10.7029 11.5933C10.7088 11.5694 10.7153 11.5459 10.7223 11.5227C10.7284 11.5027 10.7349 11.4831 10.7417 11.4637C10.7479 11.4462 10.7543 11.4289 10.7611 11.412C10.7673 11.3966 10.7738 11.3815 10.7805 11.3665C10.7867 11.3526 10.7932 11.3388 10.7999 11.3253C10.8062 11.3125 10.8126 11.2999 10.8193 11.2875C10.8256 11.2758 10.832 11.2641 10.8387 11.2527C10.845 11.2418 10.8515 11.231 10.8581 11.2204C10.8644 11.2103 10.8709 11.2003 10.8775 11.1904C10.8838 11.1809 10.8903 11.1715 10.8969 11.1622C10.9032 11.1533 10.9097 11.1446 10.9163 11.1358C10.9227 11.1274 10.9291 11.1191 10.9357 11.1109C10.9421 11.1029 10.9486 11.0951 10.9551 11.0873C10.9615 11.0797 10.9679 11.0723 10.9745 11.0649C10.9809 11.0577 10.9873 11.0505 10.9939 11.0435C11.0003 11.0367 11.0067 11.0298 11.0133 11.0232C11.0197 11.0167 11.0262 11.0103 11.0327 11.004C11.0391 10.9978 11.0456 10.9917 11.0521 10.9856C11.0585 10.9797 11.065 10.9738 11.0715 10.968C11.0779 10.9623 11.0844 10.9566 11.0909 10.951C11.0973 10.9456 11.1038 10.9403 11.1103 10.935C11.1167 10.9298 11.1232 10.9247 11.1297 10.9196C11.1361 10.9146 11.1426 10.9096 11.1491 10.9047C11.1555 10.8999 11.162 10.8953 11.1685 10.8906C11.1749 10.886 11.1814 10.8815 11.1879 10.877C11.1944 10.8726 11.2008 10.8681 11.2073 10.8638C11.2137 10.8596 11.2202 10.8555 11.2267 10.8514C11.2332 10.8473 11.2396 10.8432 11.2461 10.8393C11.2526 10.8353 11.259 10.8315 11.2655 10.8276C11.2719 10.8239 11.2784 10.8202 11.2849 10.8166C11.2914 10.8129 11.2978 10.8093 11.3043 10.8058C11.3107 10.8023 11.3172 10.7989 11.3237 10.7955C11.3302 10.7922 11.3366 10.7889 11.3431 10.7856C11.3496 10.7824 11.356 10.7792 11.3625 10.7761C11.3689 10.773 11.3754 10.77 11.3819 10.767C11.3884 10.764 11.3948 10.761 11.4013 10.7581C11.4077 10.7553 11.4142 10.7525 11.4207 10.7498C11.4272 10.747 11.4336 10.7442 11.4401 10.7415C11.4466 10.7389 11.4531 10.7364 11.4595 10.7339C11.466 10.7313 11.4724 10.7288 11.4789 10.7263C11.4854 10.7239 11.4919 10.7216 11.4983 10.7192C11.5048 10.7169 11.5112 10.7145 11.5178 10.7123C11.5242 10.71 11.5307 10.7079 11.5371 10.7057C11.5436 10.7036 11.55 10.7014 11.5566 10.6993C11.563 10.6973 11.5695 10.6953 11.5759 10.6933C11.5824 10.6914 11.5888 10.6894 11.5953 10.6875L11.6148 10.682C11.6212 10.6802 11.6276 10.6784 11.6341 10.6767C11.6406 10.675 11.6471 10.6733 11.6536 10.6717C11.66 10.67 11.6664 10.6684 11.6729 10.6668L11.6924 10.6623C11.6988 10.6608 11.7052 10.6593 11.7118 10.6578C11.7182 10.6564 11.7247 10.6551 11.7312 10.6538C11.7376 10.6524 11.744 10.651 11.7506 10.6498C11.757 10.6485 11.7635 10.6474 11.7699 10.6462C11.7764 10.645 11.7828 10.6437 11.7894 10.6425C11.7958 10.6414 11.8023 10.6404 11.8088 10.6393C11.8152 10.6383 11.8217 10.6372 11.8282 10.6362L11.8476 10.6333L11.867 10.6305L11.8864 10.628L11.9058 10.6257L11.9252 10.6234L11.9446 10.6215C11.951 10.6208 11.9575 10.6201 11.964 10.6196C11.9704 10.619 11.9769 10.6185 11.9834 10.618L12.0028 10.6165L12.0222 10.6151L12.0416 10.614L12.061 10.6129C12.0674 10.6126 12.0739 10.6124 12.0804 10.6121C12.0868 10.6119 12.0933 10.6115 12.0998 10.6113L12.1192 10.6108L12.1386 10.6104L12.158 10.6101L12.1774 10.6101C12.1839 10.6101 12.1903 10.61 12.1968 10.61L12.2162 10.6102L12.2356 10.6105L12.255 10.6109L12.2744 10.6116L12.2938 10.6122L12.3132 10.6131L12.3326 10.6141L12.352 10.6151L12.3714 10.6164L12.3908 10.6177L12.3984 10.6182L12.4102 10.6191L12.4296 10.6207L12.449 10.6223L12.4684 10.6241L12.4878 10.6259L12.5072 10.6279L12.5266 10.63L12.546 10.6321L12.5654 10.6344L12.5848 10.6367L12.6042 10.6392L12.6236 10.6417L12.643 10.6444L12.6624 10.6472L12.6818 10.65L12.7012 10.653L12.7206 10.6561L12.74 10.6593L12.7594 10.6626L12.7788 10.666L12.7982 10.6695L12.8176 10.6731L12.837 10.6768L12.8564 10.6806L12.8758 10.6846L12.8952 10.6886L12.9146 10.6928L12.934 10.6971L12.9534 10.7014L12.9728 10.7059L12.9922 10.7105L13.0116 10.7152L13.031 10.72L13.0504 10.7249L13.0698 10.73L13.0892 10.7351L13.1086 10.7404L13.128 10.7457L13.1474 10.7512L13.1668 10.7568L13.1862 10.7625L13.2056 10.7683L13.225 10.7743L13.2444 10.7803L13.2638 10.7864L13.2832 10.7927L13.3026 10.7991L13.322 10.8056L13.3414 10.8122L13.3608 10.8189L13.3802 10.8257L13.3996 10.8327L13.419 10.8397L13.4384 10.8469L13.4578 10.8542L13.4772 10.8616L13.4966 10.869L13.5161 10.8766L13.5354 10.8843L13.5549 10.8922L13.5742 10.9001L13.5936 10.9082L13.6131 10.9163L13.6324 10.9245L13.6519 10.9329L13.6712 10.9414L13.6907 10.9499L13.7101 10.9586L13.7295 10.9673L13.7489 10.9762L13.7682 10.9852L13.7877 10.9942L13.8071 11.0034L13.8265 11.0126L13.8459 11.022L13.8653 11.0314L13.8847 11.0409L13.9041 11.0505L13.9234 11.0602V10.2137L13.9041 10.2089L13.8847 10.2043L13.8653 10.1997L13.8459 10.1952L13.8265 10.1907L13.8071 10.1863L13.7877 10.182L13.7682 10.1777L13.7489 10.1734L13.7295 10.1692L13.7101 10.165L13.6907 10.1609L13.6712 10.1567L13.6519 10.1527L13.6324 10.1487L13.6131 10.1447L13.5936 10.1407L13.5742 10.1368L13.5549 10.133L13.5354 10.1291L13.5161 10.1254L13.4966 10.1216L13.4772 10.1179L13.4578 10.1142L13.4384 10.1106L13.419 10.107L13.3996 10.1034L13.3802 10.0999L13.3608 10.0964L13.3414 10.0929L13.322 10.0895L13.3026 10.0862L13.2832 10.0828L13.2638 10.0795L13.2444 10.0763L13.225 10.0731L13.2056 10.0699L13.1862 10.0667L13.1668 10.0637L13.1474 10.0606L13.128 10.0576L13.1086 10.0546L13.0892 10.0517L13.0698 10.0488L13.0504 10.0459L13.031 10.0431L13.0116 10.0403L12.9922 10.0376L12.9728 10.0349L12.9534 10.0323L12.934 10.0297L12.9146 10.0271L12.8952 10.0247L12.8758 10.0222L12.8564 10.0198L12.837 10.0174L12.8176 10.0151L12.7982 10.0129L12.7788 10.0106L12.7594 10.0085L12.74 10.0064L12.7206 10.0043L12.7012 10.0023L12.6818 10.0003L12.6624 9.99842L12.643 9.99656L12.6236 9.99475L12.6042 9.99303L12.5848 9.99133L12.5654 9.9897L12.546 9.98813L12.5266 9.98661L12.5072 9.98519L12.4878 9.98376L12.4684 9.98247L12.449 9.98117L12.4296 9.98L12.4102 9.97885L12.3908 9.9778L12.3714 9.97679L12.352 9.97586L12.3421 9.9754L12.3326 9.975L12.3132 9.9742L12.2938 9.9734L12.2744 9.9726L12.255 9.97193L12.2356 9.97127L12.2162 9.9706L12.1968 9.97002L12.1774 9.96948L12.158 9.96895L12.1386 9.96845L12.1192 9.96805L12.0998 9.96767L12.0804 9.96727L12.061 9.96701L12.0416 9.96676L12.0222 9.9665L12.0028 9.96634L11.9834 9.96625L11.964 9.96613L11.9446 9.96609L11.9252 9.96612L11.9058 9.96615L11.8864 9.96621L11.867 9.96639L11.8476 9.96658L11.8282 9.96677L11.8088 9.96711L11.7894 9.96743L11.7699 9.96777L11.7506 9.96825L11.7312 9.96873L11.7118 9.96921L11.6924 9.96983L11.6729 9.97047L11.6536 9.97111L11.6341 9.97189L11.6148 9.97269L11.5953 9.97348L11.5759 9.97442L11.5566 9.97538L11.5371 9.97632L11.5178 9.97743L11.4983 9.97855L11.4789 9.97967L11.4595 9.98095L11.4401 9.98224L11.4207 9.98354L11.4013 9.98501L11.3819 9.98647L11.3625 9.98797L11.3431 9.9896L11.3237 9.99122L11.3043 9.99293L11.2849 9.99474L11.2655 9.99654L11.2461 9.99846L11.2267 10.0005L11.2073 10.0024L11.1879 10.0046L11.1685 10.0068L11.1491 10.009L11.1297 10.0113L11.1103 10.0137L11.0909 10.0162L11.0715 10.0187L11.0521 10.0213L11.0327 10.024L11.0133 10.0267L10.9939 10.0295L10.9745 10.0325L10.9551 10.0354L10.9357 10.0385L10.9163 10.0417L10.8969 10.0449L10.8775 10.0482L10.8581 10.0515L10.8387 10.0551L10.8193 10.0586L10.7999 10.0623L10.7805 10.066L10.7611 10.0698L10.7417 10.0738L10.7223 10.0778L10.7029 10.0819L10.6835 10.0861L10.6641 10.0904L10.6447 10.0948L10.6253 10.0993L10.6059 10.1039L10.5865 10.1086L10.5671 10.1135L10.5477 10.1184L10.5283 10.1234L10.5089 10.1286L10.4895 10.1338L10.4701 10.1392L10.4507 10.1447L10.4313 10.1503L10.4119 10.156L10.3925 10.1619L10.3731 10.1679L10.3537 10.174C10.3472 10.1761 10.3407 10.1781 10.3343 10.1802L10.3149 10.1866C10.3084 10.1888 10.3019 10.1909 10.2955 10.1931L10.2761 10.1998L10.2567 10.2065C10.2502 10.2088 10.2437 10.2112 10.2373 10.2136C10.2308 10.2159 10.2243 10.2182 10.2179 10.2206L10.1985 10.2279C10.192 10.2303 10.1855 10.2327 10.1791 10.2352L10.1597 10.2428L10.1403 10.2505L10.1209 10.2584L10.1015 10.2665L10.0821 10.2747L10.0627 10.2831L10.0433 10.2916L10.0239 10.3005L10.0045 10.3093C9.99796 10.3124 9.99154 10.3155 9.98508 10.3186L9.96568 10.3279L9.94627 10.3375L9.92688 10.3473C9.92039 10.3506 9.91388 10.3538 9.90747 10.3572C9.90095 10.3606 9.89452 10.364 9.88808 10.3675L9.86867 10.3779L9.84927 10.3886C9.84275 10.3922 9.83631 10.3959 9.82986 10.3996C9.82337 10.4032 9.81688 10.4069 9.81047 10.4107C9.80396 10.4145 9.79752 10.4183 9.79108 10.4221C9.78455 10.426 9.77809 10.4299 9.77167 10.4339C9.76517 10.4378 9.75867 10.4418 9.75227 10.4458C9.74575 10.4499 9.73929 10.454 9.73286 10.4581L9.71347 10.4707C9.70696 10.475 9.70047 10.4792 9.69406 10.4835L9.67467 10.4968C9.66814 10.5013 9.6617 10.5058 9.65527 10.5103C9.64876 10.5149 9.64227 10.5195 9.63586 10.5242C9.62937 10.5289 9.62286 10.5336 9.61647 10.5383C9.60993 10.5432 9.6035 10.5481 9.59706 10.553C9.59054 10.558 9.58408 10.563 9.57765 10.568C9.57114 10.5731 9.56467 10.5782 9.55826 10.5834V10.5833Z" fill="#E10238"/>
</svg>
