<svg width="24" height="24" viewBox="0 0 24 24" fill="none" xmlns="http://www.w3.org/2000/svg">
<rect x="0.151686" y="4.15169" width="23.6966" height="15.6966" rx="1.06181" fill="white" stroke="#909090" stroke-width="0.303373"/>
<path fill-rule="evenodd" clip-rule="evenodd" d="M8.6436 16.6983V17.3332V17.9681H8.3683V17.8139C8.28098 17.9282 8.14849 18 7.9684 18C7.61336 18 7.33504 17.7212 7.33504 17.3332C7.33504 16.9455 7.61336 16.6664 7.9684 16.6664C8.14849 16.6664 8.28098 16.7381 8.3683 16.8525V16.6983H8.6436ZM8.00259 16.9286C7.76429 16.9286 7.61845 17.112 7.61845 17.3352C7.61845 17.5584 7.76429 17.7417 8.00259 17.7417C8.23029 17.7417 8.384 17.5663 8.384 17.3352C8.384 17.1041 8.23029 16.9286 8.00259 16.9286ZM17.9466 17.3352C17.9466 17.112 18.0924 16.9286 18.3307 16.9286C18.5587 16.9286 18.7121 17.1041 18.7121 17.3352C18.7121 17.5663 18.5587 17.7417 18.3307 17.7417C18.0924 17.7417 17.9466 17.5584 17.9466 17.3352ZM18.9725 16.1884V17.3332V17.9681H18.6969V17.8139C18.6096 17.9282 18.4771 18 18.297 18C17.942 18 17.6636 17.7212 17.6636 17.3332C17.6636 16.9455 17.942 16.6664 18.297 16.6664C18.4771 16.6664 18.6096 16.7381 18.6969 16.8525V16.1884H18.9725ZM12.0608 16.9152C12.2382 16.9152 12.3522 17.0268 12.3813 17.2232H11.7243C11.7537 17.0398 11.8646 16.9152 12.0608 16.9152ZM11.4359 17.3332C11.4359 16.9373 11.6954 16.6664 12.0666 16.6664C12.4213 16.6664 12.665 16.9373 12.6678 17.3332C12.6678 17.3703 12.665 17.4049 12.6623 17.4393H11.7221C11.7618 17.668 11.9234 17.7504 12.1008 17.7504C12.2278 17.7504 12.3631 17.7023 12.4692 17.6175L12.6041 17.8221C12.4504 17.9523 12.2758 18 12.085 18C11.7061 18 11.4359 17.737 11.4359 17.3332ZM15.3914 17.3352C15.3914 17.112 15.5372 16.9286 15.7755 16.9286C16.0032 16.9286 16.1569 17.1041 16.1569 17.3352C16.1569 17.5663 16.0032 17.7417 15.7755 17.7417C15.5372 17.7417 15.3914 17.5584 15.3914 17.3352ZM16.4161 16.6983V17.3332V17.9681H16.1408V17.8139C16.0531 17.9282 15.9209 18 15.7408 18C15.3858 18 15.1075 17.7212 15.1075 17.3332C15.1075 16.9455 15.3858 16.6664 15.7408 16.6664C15.9209 16.6664 16.0531 16.7381 16.1408 16.8525V16.6983H16.4161ZM13.8353 17.3332C13.8353 17.7184 14.1027 18 14.5108 18C14.7015 18 14.8286 17.9574 14.9662 17.8486L14.834 17.6254C14.7306 17.6999 14.6221 17.7397 14.5026 17.7397C14.2828 17.737 14.1212 17.5777 14.1212 17.3332C14.1212 17.0887 14.2828 16.9294 14.5026 16.9266C14.6221 16.9266 14.7306 16.9665 14.834 17.041L14.9662 16.8178C14.8286 16.7089 14.7015 16.6664 14.5108 16.6664C14.1027 16.6664 13.8353 16.9479 13.8353 17.3332ZM17.0518 16.8548C17.1233 16.7432 17.2267 16.6687 17.3856 16.6687C17.4414 16.6687 17.5208 16.6794 17.5817 16.7034L17.4968 16.9637C17.4386 16.9396 17.3804 16.9317 17.3246 16.9317C17.1445 16.9317 17.0545 17.0485 17.0545 17.2586V17.9704H16.7789V16.7006H17.0518V16.8548ZM10.0052 16.7992C9.87272 16.7117 9.6902 16.6664 9.48889 16.6664C9.16811 16.6664 8.96164 16.8205 8.96164 17.0729C8.96164 17.28 9.11536 17.4077 9.39854 17.4475L9.5286 17.4661C9.67959 17.4873 9.75084 17.5272 9.75084 17.5989C9.75084 17.6971 9.65018 17.7531 9.46221 17.7531C9.2715 17.7531 9.13385 17.692 9.04108 17.6202L8.91131 17.8352C9.0623 17.9468 9.25301 18 9.45948 18C9.82512 18 10.0371 17.8273 10.0371 17.5856C10.0371 17.3624 9.8703 17.2456 9.5947 17.2058L9.46493 17.1869C9.34578 17.1711 9.25028 17.1474 9.25028 17.0623C9.25028 16.9692 9.34032 16.9136 9.49131 16.9136C9.65291 16.9136 9.80936 16.9747 9.88606 17.0224L10.0052 16.7992ZM13.2244 16.8548C13.2957 16.7432 13.3991 16.6687 13.5579 16.6687C13.6137 16.6687 13.6932 16.6794 13.7541 16.7034L13.6692 16.9637C13.611 16.9396 13.5528 16.9317 13.497 16.9317C13.3169 16.9317 13.2269 17.0485 13.2269 17.2586V17.9704H12.9516V16.7006H13.2244V16.8548ZM11.2073 16.6983H10.757V16.313H10.4787V16.6983H10.2219V16.9507H10.4787V17.5299C10.4787 17.8246 10.5927 18 10.9183 18C11.0378 18 11.1754 17.9629 11.2628 17.9018L11.1833 17.6652C11.1012 17.713 11.0111 17.737 10.9396 17.737C10.8019 17.737 10.757 17.6518 10.757 17.5244V16.9507H11.2073V16.6983ZM7.09151 17.1735V17.9704H6.81319V17.2638C6.81319 17.0485 6.72314 16.929 6.53516 16.929C6.35234 16.929 6.2253 17.0461 6.2253 17.2665V17.9704H5.94698V17.2638C5.94698 17.0485 5.8545 16.929 5.67168 16.929C5.4834 16.929 5.36152 17.0461 5.36152 17.2665V17.9704H5.0835V16.7006H5.35909V16.8572C5.46248 16.7086 5.59467 16.6687 5.72989 16.6687C5.92333 16.6687 6.06098 16.7539 6.14829 16.8946C6.26502 16.7165 6.43177 16.666 6.59337 16.6687C6.90081 16.6715 7.09151 16.8734 7.09151 17.1735Z" fill="#231F20"/>
<path d="M14.087 14.5414H9.91455V7.02124H14.087V14.5414Z" fill="#FF5F00"/>
<path d="M10.1787 10.7834C10.1787 9.25788 10.8908 7.899 11.9999 7.02329C11.1889 6.38293 10.1653 6.00072 9.05291 6.00072C6.41942 6.00072 4.28467 8.14195 4.28467 10.7834C4.28467 13.4248 6.41942 15.566 9.05291 15.566C10.1653 15.566 11.1889 15.1838 11.9999 14.5435C10.8908 13.6678 10.1787 12.3089 10.1787 10.7834Z" fill="#EB001B"/>
<path d="M19.7155 10.7834C19.7155 13.4248 17.5808 15.566 14.9473 15.566C13.8349 15.566 12.8113 15.1838 12 14.5435C13.1094 13.6678 13.8216 12.3089 13.8216 10.7834C13.8216 9.25788 13.1094 7.899 12 7.02329C12.8113 6.38293 13.8349 6.00072 14.9473 6.00072C17.5808 6.00072 19.7155 8.14195 19.7155 10.7834Z" fill="#F79E1B"/>
</svg>
