<svg width="24" height="24" viewBox="0 0 24 24" fill="none" xmlns="http://www.w3.org/2000/svg">
<rect x="0.151686" y="4.15169" width="23.6966" height="15.6966" rx="1.06181" fill="white" stroke="#909090" stroke-width="0.303373"/>
<path fill-rule="evenodd" clip-rule="evenodd" d="M20.5586 6.00327L15.8818 6.00208C15.8812 6.00208 15.8806 6.00208 15.8806 6.00208C15.877 6.00208 15.8734 6.00271 15.8699 6.00271C15.2274 6.02218 14.4272 6.53186 14.2814 7.16034L12.0697 16.8398C11.924 17.4741 12.3205 17.9903 12.9583 17.9998H17.8715C18.4996 17.969 19.11 17.4652 19.2532 16.8439L21.4651 7.16439C21.6131 6.52359 21.2071 6.00327 20.5586 6.00327Z" fill="#01798A"/>
<path fill-rule="evenodd" clip-rule="evenodd" d="M12.0693 16.8389L14.2811 7.15945C14.4268 6.53098 15.227 6.0213 15.8695 6.00183L14.01 6.00064L10.6597 6C10.0154 6.01303 9.2048 6.52629 9.05911 7.15945L6.84673 16.8389C6.70045 17.4732 7.09751 17.9894 7.73495 17.9989H12.9579C12.3201 17.9894 11.9236 17.4732 12.0693 16.8389" fill="#024381"/>
<path fill-rule="evenodd" clip-rule="evenodd" d="M6.84721 16.84L9.0596 7.16056C9.20528 6.5274 10.0159 6.01414 10.6602 6.00111L6.3683 6C5.72041 6 4.88975 6.51914 4.74169 7.16056L2.5293 16.84C2.51583 16.8991 2.50836 16.9569 2.50391 17.0136V17.1932C2.54722 17.6556 2.90427 17.9923 3.41751 18H7.73543C7.098 17.9905 6.70093 17.4743 6.84721 16.84Z" fill="#DD0228"/>
<path fill-rule="evenodd" clip-rule="evenodd" d="M10.7514 13.0528H10.8326C10.9073 13.0528 10.9575 13.028 10.981 12.979L11.1921 12.6666H11.7573L11.6394 12.8721H12.3171L12.2311 13.1869H11.4248C11.3319 13.3251 11.2176 13.3901 11.0801 13.3824H10.6601L10.7514 13.0528H10.7514ZM10.659 13.5053H12.1437L12.0491 13.8473H11.452L11.3609 14.1774H11.9419L11.8473 14.5194H11.2662L11.1312 15.0072C11.0978 15.0887 11.1418 15.1254 11.2624 15.1171H11.7359L11.6482 15.4349H10.739C10.5667 15.4349 10.5076 15.3374 10.5616 15.1419L10.7342 14.5194H10.3628L10.4571 14.1774H10.8286L10.9196 13.8473H10.5646L10.659 13.5053H10.659ZM13.0287 12.6661L13.0053 12.8663C13.0053 12.8663 13.2854 12.6583 13.5397 12.6583H14.4796L14.1202 13.9453C14.0904 14.0924 13.9626 14.1656 13.7368 14.1656H12.6715L12.4219 15.0692C12.4075 15.1177 12.4279 15.1425 12.4816 15.1425H12.6912L12.6142 15.423H12.0813C11.8767 15.423 11.7916 15.3622 11.8254 15.24L12.5305 12.6661H13.0287H13.0287H13.0287ZM13.825 13.0293H12.986L12.8857 13.3765C12.8857 13.3765 13.0254 13.2768 13.2589 13.2732C13.4917 13.2696 13.7575 13.2732 13.7575 13.2732L13.825 13.0293ZM13.521 13.8358C13.583 13.8441 13.6177 13.8198 13.6219 13.7625L13.6732 13.5795H12.833L12.7625 13.8358H13.521ZM12.9531 14.2534H13.4374L13.4284 14.4606H13.5574C13.6225 14.4606 13.6548 14.44 13.6548 14.3993L13.693 14.2652H14.0955L14.0418 14.4606C13.9963 14.6237 13.8758 14.7087 13.6799 14.717H13.4219L13.4207 15.0714C13.416 15.1281 13.4679 15.157 13.5747 15.157H13.8172L13.739 15.4376H13.1574C12.9943 15.4452 12.9144 15.3684 12.9161 15.2055L12.9531 14.2534V14.2534Z" fill="white"/>
<path fill-rule="evenodd" clip-rule="evenodd" d="M7.08525 10.9528C7.01957 11.2712 6.8673 11.5157 6.6311 11.6893C6.39704 11.86 6.09516 11.9456 5.72556 11.9456C5.37774 11.9456 5.12274 11.8582 4.96001 11.6828C4.84716 11.5582 4.79102 11.3999 4.79102 11.2085C4.79102 11.1294 4.80059 11.0443 4.81971 10.9528L5.2135 9.07471H5.80826L5.41982 10.9315C5.40787 10.9829 5.40309 11.0308 5.40372 11.0739C5.40309 11.169 5.42697 11.2469 5.47534 11.3078C5.5458 11.3981 5.66016 11.443 5.8193 11.443C6.0023 11.443 6.15309 11.3987 6.27013 11.3095C6.38719 11.2209 6.46361 11.0952 6.49794 10.9315L6.8876 9.07471H7.47934L7.08525 10.9528Z" fill="white"/>
<path fill-rule="evenodd" clip-rule="evenodd" d="M9.5827 10.2148H10.0485L9.68363 11.891H9.21875L9.5827 10.2148ZM9.72998 9.60071H10.1999L10.1121 10.0076H9.64224L9.72998 9.60071Z" fill="white"/>
<path fill-rule="evenodd" clip-rule="evenodd" d="M10.4603 11.7623C10.3385 11.6472 10.277 11.4918 10.2764 11.2946C10.2764 11.2609 10.2784 11.2225 10.283 11.1806C10.2874 11.138 10.2931 11.0967 10.3012 11.0583C10.3564 10.7861 10.474 10.5699 10.6553 10.4104C10.8362 10.2504 11.0545 10.17 11.31 10.17C11.5193 10.17 11.6853 10.2279 11.8069 10.3437C11.9284 10.4601 11.9893 10.6171 11.9893 10.8168C11.9893 10.851 11.9866 10.8906 11.9821 10.9331C11.9767 10.9762 11.9702 11.0176 11.9627 11.0583C11.9087 11.3265 11.7914 11.5403 11.6101 11.6968C11.4289 11.8545 11.2112 11.933 10.9574 11.933C10.7473 11.933 10.5818 11.8763 10.4603 11.7623M11.3477 11.4289C11.4298 11.3409 11.4886 11.2074 11.5245 11.0297C11.5299 11.002 11.5346 10.973 11.5376 10.9441C11.5405 10.9157 11.5418 10.8891 11.5418 10.8649C11.5418 10.7615 11.5152 10.6812 11.4617 10.6245C11.4086 10.5672 11.3331 10.5389 11.2355 10.5389C11.1065 10.5389 11.0014 10.5837 10.919 10.6735C10.8359 10.7633 10.7771 10.8992 10.7401 11.0799C10.735 11.1076 10.7309 11.1354 10.727 11.1626C10.724 11.1903 10.7231 11.2163 10.7237 11.2399C10.7237 11.3427 10.7503 11.4219 10.8037 11.478C10.8568 11.5341 10.932 11.5618 11.0309 11.5618C11.1605 11.5618 11.2656 11.5175 11.3477 11.4289" fill="white"/>
<path fill-rule="evenodd" clip-rule="evenodd" d="M15.0108 13.074L15.1231 12.6831H15.6909L15.6664 12.8265C15.6664 12.8265 15.9566 12.6831 16.1656 12.6831C16.3746 12.6831 16.8678 12.6831 16.8678 12.6831L16.7562 13.074H16.6457L16.116 14.9179H16.2265L16.1214 15.2841H16.0109L15.965 15.443H15.415L15.4609 15.2841H14.376L14.4817 14.9179H14.5904L15.1206 13.074H15.0108H15.0108ZM15.6235 13.0725L15.479 13.5716C15.479 13.5716 15.7263 13.4777 15.9394 13.4511C15.9865 13.2769 16.0481 13.0725 16.0481 13.0725H15.6235L15.6235 13.0725ZM15.4123 13.8062L15.2673 14.3289C15.2673 14.3289 15.5413 14.1954 15.7294 14.1841C15.7837 13.9821 15.8381 13.8062 15.8381 13.8062H15.4123V13.8062ZM15.5181 14.919L15.6268 14.5398H15.2029L15.0936 14.919H15.5181ZM16.8916 12.6583H17.4255L17.4482 12.8532C17.4446 12.9028 17.4744 12.9265 17.5378 12.9265H17.6321L17.5366 13.2566H17.1442C16.9944 13.2642 16.9174 13.2076 16.9102 13.0853L16.8916 12.6583ZM16.7355 13.3672H18.4648L18.3633 13.7216H17.8127L17.7183 14.0511H18.2683L18.1662 14.4049H17.5536L17.415 14.6123H17.7149L17.7841 15.0274C17.7924 15.0688 17.8294 15.0888 17.8927 15.0888H17.9859L17.888 15.4308H17.5584C17.3875 15.4391 17.2993 15.3824 17.292 15.2601L17.2126 14.881L16.9397 15.2843C16.8752 15.3983 16.7761 15.4515 16.6424 15.4432H16.139L16.2369 15.1012H16.394C16.4585 15.1012 16.5121 15.0729 16.5605 15.0156L16.9875 14.4049H16.4369L16.539 14.0511H17.1362L17.2311 13.7216H16.6334L16.7355 13.3672Z" fill="white"/>
<path fill-rule="evenodd" clip-rule="evenodd" d="M7.63184 10.2115H8.05191L8.00387 10.4536L8.06416 10.3845C8.20033 10.2404 8.36572 10.1689 8.56099 10.1689C8.73774 10.1689 8.86522 10.2198 8.94525 10.3219C9.02405 10.4241 9.04555 10.5653 9.00827 10.7466L8.77685 11.8888H8.34513L8.55411 10.8535C8.57565 10.7466 8.56968 10.6668 8.53648 10.6154C8.50368 10.5641 8.44094 10.5387 8.35049 10.5387C8.23943 10.5387 8.14597 10.5729 8.06984 10.6409C7.99338 10.7094 7.94295 10.8045 7.91816 10.9255L7.72559 11.8888H7.29297L7.63184 10.2115Z" fill="white"/>
<path fill-rule="evenodd" clip-rule="evenodd" d="M12.4496 10.2115H12.8701L12.8223 10.4536L12.882 10.3845C13.0182 10.2404 13.1842 10.1689 13.3789 10.1689C13.5556 10.1689 13.6834 10.2198 13.7628 10.3219C13.8411 10.4241 13.8637 10.5653 13.8255 10.7466L13.595 11.8888H13.1627L13.3717 10.8535C13.3932 10.7466 13.3872 10.6668 13.3544 10.6154C13.3203 10.5641 13.2588 10.5387 13.1687 10.5387C13.0576 10.5387 12.9645 10.5729 12.8874 10.6409C12.8109 10.7094 12.7602 10.8045 12.7364 10.9255L12.5429 11.8888H12.1108L12.4496 10.2115" fill="white"/>
<path fill-rule="evenodd" clip-rule="evenodd" d="M14.5281 9.17114H15.7487C15.9834 9.17114 16.1648 9.22375 16.2896 9.32705C16.4138 9.43162 16.476 9.58165 16.476 9.77713V9.78301C16.476 9.8202 16.4735 9.86216 16.47 9.90761C16.464 9.95251 16.4562 9.99796 16.4461 10.0452C16.3924 10.3039 16.2675 10.5118 16.0747 10.6695C15.8812 10.8266 15.6519 10.9058 15.388 10.9058H14.7335L14.5311 11.888H13.9644L14.5281 9.17114M14.8335 10.4357H15.3764C15.5178 10.4357 15.6301 10.4032 15.7119 10.3388C15.7932 10.2738 15.8469 10.1746 15.8767 10.04C15.8815 10.0151 15.8844 9.99271 15.888 9.97205C15.8899 9.95258 15.8922 9.93303 15.8922 9.9142C15.8922 9.81789 15.8577 9.7482 15.7883 9.70449C15.7191 9.66015 15.6105 9.63893 15.4599 9.63893H14.9989L14.8335 10.4357" fill="white"/>
<path fill-rule="evenodd" clip-rule="evenodd" d="M19.012 12.2153C18.8328 12.592 18.6621 12.8117 18.5618 12.9139C18.4614 13.0149 18.2626 13.25 17.7837 13.2322L17.8249 12.9446C18.2279 12.8218 18.4459 12.2683 18.5701 12.0233L18.422 10.2184L18.7337 10.2142H18.9952L19.0234 11.3464L19.5135 10.2142H20.0098L19.012 12.2153" fill="white"/>
<path fill-rule="evenodd" clip-rule="evenodd" d="M17.6251 10.3511L17.4279 10.4852C17.2219 10.3258 17.0338 10.2271 16.6709 10.3937C16.1763 10.6205 15.7631 12.3598 17.1246 11.7869L17.2022 11.8779L17.7379 11.8915L18.0896 10.311L17.6251 10.3511M17.3204 11.2159C17.2344 11.4669 17.0422 11.6329 16.8917 11.5856C16.7413 11.5395 16.6875 11.2974 16.7747 11.0458C16.8606 10.7942 17.0541 10.6288 17.2034 10.6761C17.3539 10.7221 17.4082 10.9643 17.3204 11.2159Z" fill="white"/>
</svg>
