<svg width="24" height="24" viewBox="0 0 24 24" fill="none" xmlns="http://www.w3.org/2000/svg">
<rect x="0.151686" y="4.15169" width="23.6966" height="15.6966" rx="1.06181" fill="white" stroke="#909090" stroke-width="0.303373"/>
<path d="M10.7999 14.9131H9.3418L10.2538 9.10498H11.7119L10.7999 14.9131Z" fill="#15195A"/>
<path d="M16.0859 9.24728C15.7983 9.12976 15.3421 9 14.7781 9C13.3381 9 12.3241 9.79086 12.3179 10.9215C12.3059 11.7558 13.0439 12.2191 13.5958 12.4973C14.16 12.7815 14.3517 12.967 14.3517 13.2204C14.346 13.6095 13.8959 13.7888 13.4761 13.7888C12.8939 13.7888 12.582 13.6964 12.108 13.4799L11.916 13.3871L11.7119 14.6909C12.0539 14.8514 12.684 14.9938 13.3381 15C14.8681 15 15.8642 14.2214 15.876 13.0165C15.8818 12.3553 15.4921 11.8486 14.652 11.4347C14.142 11.1689 13.8297 10.9897 13.8297 10.7178C13.8357 10.4706 14.0939 10.2174 14.6696 10.2174C15.1436 10.205 15.4919 10.3224 15.7557 10.4398L15.8876 10.5015L16.0859 9.24728Z" fill="#15195A"/>
<path fill-rule="evenodd" clip-rule="evenodd" d="M18.6961 9.10217H19.8239L21.0003 14.9102H19.6502C19.6502 14.9102 19.5181 14.2429 19.4762 14.039H17.6041L17.298 14.9102H15.7681L17.9339 9.58408C18.084 9.20713 18.3482 9.10217 18.6961 9.10217ZM18.6061 11.227C18.6061 11.227 18.144 12.5184 18.0239 12.8521H19.2359C19.176 12.5617 18.8998 11.1714 18.8998 11.1714L18.7979 10.671C18.755 10.7998 18.693 10.977 18.6511 11.0965C18.6227 11.1775 18.6036 11.2321 18.6061 11.227Z" fill="#15195A"/>
<path fill-rule="evenodd" clip-rule="evenodd" d="M3.024 9.10217H5.36999C5.68798 9.11441 5.94601 9.21945 6.02997 9.5904L6.53996 12.2598C6.53995 12.2597 6.53993 12.2597 6.53991 12.2596L6.69594 13.0628L8.12393 9.10217H9.66579L7.37385 14.9042H5.83192L4.53227 9.85734C4.08388 9.58736 3.57214 9.37022 3 9.21953L3.024 9.10217Z" fill="#15195A"/>
</svg>
