<svg width="64" height="64" viewBox="0 0 64 64" fill="none" xmlns="http://www.w3.org/2000/svg">
<rect width="64" height="64" rx="16" fill="#52E9BC"/>
<path opacity="0.2" d="M19 28.1066H45L45.0007 40C45.0007 40.2653 44.8954 40.5196 44.7078 40.7071C44.5203 40.8947 44.2659 41 44.0007 41H20.0007C19.7355 41 19.4812 40.8947 19.2936 40.7071C19.1061 40.5196 19.0007 40.2653 19.0007 40L19 28.1066Z" fill="white"/>
<path d="M44 23H20C19.4477 23 19 23.4477 19 24V40C19 40.5523 19.4477 41 20 41H44C44.5523 41 45 40.5523 45 40V24C45 23.4477 44.5523 23 44 23Z" stroke="white" stroke-width="2" stroke-linecap="round" stroke-linejoin="round"/>
<path d="M37 37H41" stroke="white" stroke-width="2" stroke-linecap="round" stroke-linejoin="round"/>
<path d="M31 37H33" stroke="white" stroke-width="2" stroke-linecap="round" stroke-linejoin="round"/>
<path d="M19 28.1066H45" stroke="white" stroke-width="2" stroke-linecap="round" stroke-linejoin="round"/>
</svg>
