<svg width="24" height="24" viewBox="0 0 24 24" fill="none" xmlns="http://www.w3.org/2000/svg">
<path d="M12.5113 23.4581C4.60172 23.4581 2.4884 15.2129 3.44367 9.81057C3.48525 9.57545 3.79345 9.50771 3.92775 9.70515C4.34362 10.3164 4.7137 11.1993 5.32687 11.1227C6.24848 11.0074 6.88697 2.87518 12.3491 0.58698C12.5224 0.51437 12.7038 0.652136 12.6847 0.839073C12.4147 3.48906 14.0057 7.28289 16.8246 7.28289C18.4404 7.28289 19.546 5.99326 20.0985 4.6981C20.2663 4.30468 20.8411 4.35428 20.9374 4.77104C21.9232 9.04051 24.5585 23.4581 12.5113 23.4581Z" fill="#FF3A55"/>
<path d="M9.73868 15.5075C9.92468 15.3512 10.2071 15.4584 10.2493 15.6977C10.3481 16.2575 10.673 17.2196 11.7389 17.2196C13.021 17.2196 13.8911 13.6916 14.1193 12.654C14.1568 12.4833 14.3232 12.3674 14.4945 12.4022C17.6986 13.0537 19.2565 23.4581 12.2115 23.4581C7.08284 23.4581 8.24473 16.7625 9.73868 15.5075ZM18.494 4.23999C18.607 3.35677 16.9947 5.77247 16.9947 5.77247C16.9947 5.77247 18.2239 6.35306 18.494 4.23999ZM2.24839 17.412C2.28237 17.036 1.79867 16.0293 1.71303 16.4279C1.50804 17.3815 2.2144 17.788 2.24839 17.412Z" fill="#FFBBB0"/>
<path d="M15.149 16.3404C15.0289 15.8393 14.598 17.0032 14.6521 17.4773C14.7063 17.9514 15.4364 17.5393 15.149 16.3404Z" fill="#FFE0D7"/>
</svg>
